<?xml version="1.0" encoding="UTF-8"?>
<svg id="Layer_1" xmlns="http://www.w3.org/2000/svg" version="1.1" viewBox="0 0 149 149">
  <!-- Generator: Adobe Illustrator 29.2.1, SVG Export Plug-In . SVG Version: 2.1.0 Build 116)  -->
  <defs>
    <style>
      .st0, .st1 {
        fill: #f7e4cd;
      }

      .st2, .st3, .st4, .st1, .st5, .st6, .st7, .st8, .st9, .st10, .st11, .st12 {
        fill-rule: evenodd;
      }

      .st2, .st13 {
        fill: #fff;
      }

      .st3 {
        fill: #dcd9d8;
      }

      .st4 {
        fill: #d33833;
      }

      .st14, .st6 {
        fill: #231f20;
      }

      .st5 {
        fill: #81b0c4;
      }

      .st15 {
        fill: none;
        stroke: #d33833;
        stroke-miterlimit: 5;
        stroke-width: 2.5px;
      }

      .st7 {
        fill: #49728b;
      }

      .st16, .st10 {
        fill: #ef3d3a;
      }

      .st8 {
        fill: #f0d6b7;
      }

      .st9 {
        fill: #335061;
      }

      .st11 {
        fill: #6d6b6d;
      }

      .st12 {
        fill: #1d1919;
      }
    </style>
  </defs>
  <g id="g10">
    <g id="g3393">
      <path id="path22" class="st4" d="M119.5,72.2c0,25.4-20.2,46-45,46s-45-20.6-45-46,20.2-46,45-46,45,20.6,45,46"/>
      <path id="path24" class="st16" d="M31.3,83.6s-3.3-48,41-49.4l-3.1-5.1-24,8.1-6.9,7.9-6,11.5-3.4,13.4,1,8.9"/>
      <path id="path26" class="st14" d="M43.7,40.8c-7.9,8.1-12.8,19.2-12.8,31.6h0c0,12.3,4.9,23.5,12.8,31.6h0c7.9,8.1,18.8,13.1,30.8,13.1h0c12,0,22.9-5,30.8-13.1h0c7.9-8.1,12.8-19.2,12.8-31.6h0c0-12.3-4.9-23.5-12.8-31.6h0c-7.9-8.1-18.8-13.1-30.8-13.1h0c-12,0-22.9,5-30.8,13.1h0ZM41.7,105.9c-8.4-8.6-13.6-20.4-13.6-33.5h0c0-13.1,5.2-24.9,13.6-33.5h0c8.4-8.6,20-13.9,32.8-13.9h0c12.8,0,24.4,5.3,32.8,13.9h0c8.4,8.6,13.6,20.4,13.6,33.5h0c0,13.1-5.2,24.9-13.6,33.5h0c-8.4,8.6-20,13.9-32.8,13.9h0c-12.8,0-24.4-5.3-32.8-13.9h0"/>
      <path id="path28" class="st8" d="M93.4,72.4l-6.9,1-9.3,1-6,.2-5.8-.2-4.5-1.4-3.9-4.3-3.1-8.7-.7-1.9-4.1-1.4-2.4-3.9-1.7-5.7,1.9-5,4.5-1.5,3.6,1.7,1.7,3.8,2.1-.3.7-.9-.7-3.9-.2-5,1-6.9v-3.9s3.1-5,3.1-5l5.5-3.9,9.6-4.1,10.6,1.5,9.3,6.7,4.3,6.9,2.7,5,.7,12.3-2.1,10.6-3.8,9.4-3.6,5"/>
      <path id="path30" class="st9" d="M87.6,102.1l-24.5,1v4.1l2.1,14.4-1,1.2-17.1-5.8-1.2-2.1-1.7-19.4-3.9-11.7-.9-2.7,13.7-9.4,4.3-1.7,3.8,4.6,3.3,2.9,3.8,1.2,1.7.5,2.1,8.9,1.5,1.9,3.9-1.4-2.7,5.3,14.9,7-1.9,1"/>
      <path id="path32" class="st11" d="M47,42.3l4.5-1.5,3.6,1.7,1.7,3.8,2.1-.3.5-2.1-1-3.9,1-9.4-.9-5.1,3.1-3.6,6.7-5.3-1.9-2.6-9.4,4.6-3.9,3.1-2.2,4.8-3.4,4.6-1,5.5.7,5.8"/>
      <path id="path34" class="st3" d="M54,26.1s2.6-6.3,12.9-9.4c10.3-3.1.5-2.2.5-2.2l-11.1,4.3-4.3,4.3-1.9,3.4,3.9-.3"/>
      <path id="path36" class="st3" d="M48.9,41.1s-3.6-12,10.1-13.7l-.5-2.1-9.4,2.2-2.7,8.9.7,5.8,1.9-1.2"/>
      <path id="path38" class="st1" d="M54.4,57l2.2-2.2s1,.1,1.2,1.3c.2,1.2.7,12,8.1,17.8.7.5-5.5-.9-5.5-.9l-5.5-8.6"/>
      <path id="path40" class="st1" d="M85.9,53.7s.4-5.2,1.8-4.8c1.4.4,1.4,1.8,1.4,1.8,0,0-3.4,2.2-3.2,3"/>
      <path id="path42" class="st0" d="M100.1,34.7s-2.8.6-3.1,3.1c-.3,2.5,3.1.5,3.6.3"/>
      <path id="path44" class="st0" d="M79.4,34.9s-3.8.5-3.8,2.9,4.3,2.2,5.5,1.2"/>
      <path id="path46" class="st1" d="M56.1,46s-6.5-3.9-7.2-.2c-.7,3.8-2.2,6.5,1,10.5l-2.2-.7-2.1-5.3-.7-5.1,3.9-4.1,4.5.3,2.6,2.1.2,2.6"/>
      <path id="path48" class="st1" d="M59.2,35.2s2.9-15.1,17.7-18c12.1-2.4,18.5.5,20.9,3.3,0,0-10.8-12.9-21.1-8.9-10.3,3.9-17.8,11.1-17.7,15.8.3,7.9.2,7.9.2,7.9"/>
      <path id="path50" class="st1" d="M98.9,22.2s-5-.2-5.1,4.3c0,0,0,.7.3,1.4,0,0,3.9-4.5,6.3-2.1"/>
      <path id="path52" class="st1" d="M77.2,28.3s-.9-6.8-6.7-2.9c-3.8,2.6-3.4,6.2-2.7,6.9.7.7.5,2.1,1,1.1.5-.9.3-4,2.2-4.9,1.9-.9,5-1.8,6.2-.2"/>
      <path id="path54" class="st7" d="M61,74.7l-16.1,7.2s6.7,26.6,3.3,34.8l-2.4-.9-.2-10.1-4.5-19.2-1.9-5.3,16.8-11.3,5,4.8"/>
      <path id="path56" class="st7" d="M62.7,89.4l2.3,2.8v10.3h-2.7s-.3-7.2-.3-8.1.3-3.9.3-3.9"/>
      <path id="path58" class="st7" d="M62.8,104l-7.7.3,2.2,1.5,5.5.9"/>
      <path id="path60" class="st9" d="M89.2,102.3l6.3-.2,1.5,15.8-6.5.9-1.4-16.5"/>
      <path id="path62" class="st9" d="M90.9,102.3l9.6-.5s3.9-9.9,3.9-10.5,3.4-14.4,3.4-14.4l-7.7-8.1-1.5-1.4-4.1,4.1v15.9l-3.6,14.7"/>
      <path id="path64" class="st7" d="M95.2,101.1l-6,1.2.9,4.8c2.2,1,6-1.7,6-1.7"/>
      <path id="path66" class="st7" d="M95.3,71.1l12,8.9.3-4.1-9.1-8.4-3.3,3.6"/>
      <path id="path68" class="st2" d="M68.7,136l-3.5-14.4-1.8-10.6-.3-7.9,16.1-.9h10s-.9,18-.9,18l1.5,13.9-.2,2.6-13,1-7.9-1.7"/>
      <path id="path70" class="st3" d="M86.9,102.1s-.9,17.8,1.7,30.5c0,0-5.1,3.3-12.7,4.1l14.4-.5,1.7-1-2.1-28.1-.5-6"/>
      <path id="path72" class="st2" d="M97.3,116.5l6.7-1.9,12.7-.7,1.9-5.8-3.4-10.1-3.9-.5-5.5,1.7-5.3,2.6-2.8-.5-2.2.9"/>
      <path id="path74" class="st3" d="M97.2,113.1s4.5-2.1,5.1-1.9l-1.9-9.4,2.2-.9s1.5,8.9,1.5,9.9c0,0,9.6.5,10.5.5,0,0,2.1-3.9,1.5-8.1l1.9,5.5.2,3.1-2.7,4.1-3.1.7-5.1-.2-1.7-2.2-6,.9-1.9.7"/>
      <path id="path76" class="st13" d="M90.5,100.9l-3.8-9.6-3.9-5.7s.9-2.4,2.1-2.4h3.9l3.8,1.4-.3,6.3-1.7,9.9"/>
      <path id="path78" class="st3" d="M91.2,97.6s-4.8-9.3-4.8-10.6c0,0,.9-2.1,2.1-1.5s3.8,1.9,3.8,1.9v-3.3l-5.8-1.2-3.9.5,6.7,15.8,1.4.2"/>
      <path id="path80" class="st13" d="M70.2,75l-4.7-.5-4.5-1.4v1.5l2.2,2.4,6.9,3.1"/>
      <path id="path82" class="st3" d="M62.6,75.5s5.3,2.2,7,1.7l.2,2.1-4.8-1-2.9-2.1.5-.7"/>
      <path id="path84" class="st4" d="M97.3,83.8c-2.9,0-5.5-.4-7.8-1.1.2-.9-.1-1.9,0-2.5.6-.5,1.7-.5,2.7-.6-.8-.4-2-.6-3-.3,0-.7-.3-1.1-.5-1.6,1.6-.6,5.5-4.4,7.7-3.1,1,.6,1.5,4,1.6,5.7,0,1.4-.1,2.8-.7,3.5"/>
      <path id="path86" class="st15" d="M97.3,83.8c-2.9,0-5.5-.4-7.8-1.1.2-.9-.1-1.9,0-2.5.6-.5,1.7-.5,2.7-.6-.8-.4-2-.6-3-.3,0-.7-.3-1.1-.5-1.6,1.6-.6,5.5-4.4,7.7-3.1,1,.6,1.5,4,1.6,5.7,0,1.4-.1,2.8-.7,3.5Z"/>
      <path id="path88" class="st4" d="M83.4,79.1c0,.2,0,.4,0,.7-.9.6-2.4.6-3.4,1.1,1.5,0,2.6.4,3.6.9,0,.6,0,1.1,0,1.7-1.7,1.1-3.2,2.8-5.1,3.9-.9.5-4.2,1.8-5.2,1.6-.6-.1-.6-.8-.8-1.5-.5-1.4-1.6-3.6-1.7-5.7-.1-2.7-.4-7.1,2.5-6.6,2.3.4,5,1.5,6.8,2.5,1.1.6,1.7,1.3,3.4,1.5"/>
      <path id="path90" class="st15" d="M83.4,79.1c0,.2,0,.4,0,.7-.9.6-2.4.6-3.4,1.1,1.5,0,2.6.4,3.6.9,0,.6,0,1.1,0,1.7-1.7,1.1-3.2,2.8-5.1,3.9-.9.5-4.2,1.8-5.2,1.6-.6-.1-.6-.8-.8-1.5-.5-1.4-1.6-3.6-1.7-5.7-.1-2.7-.4-7.1,2.5-6.6,2.3.4,5,1.5,6.8,2.5,1.1.6,1.7,1.3,3.4,1.5Z"/>
      <path id="path92" class="st4" d="M85.1,82.2c-.3-1.4-.5-1.9-.4-3.1,3.9-2.6,4.6,4.4.4,3.1"/>
      <path id="path94" class="st15" d="M85.1,82.2c-.3-1.4-.5-1.9-.4-3.1,3.9-2.6,4.6,4.4.4,3.1Z"/>
      <path id="path96" class="st10" d="M90.7,83.4s-1.2-1.7-.3-2.2,1.7,0,2.2-.9,0-1.4.2-2.4,1-1.2,1.9-1.4,3.3-.5,3.6.3l-1-3.1-2.1-.7-6.5,3.8-.3,1.9v3.8"/>
      <path id="path98" class="st10" d="M72.6,89.1c-.2-2.7-.4-5.3-.7-8-.4-4,1-3.3,4.4-3.3s3.3.6,3.4,1c.9,1.9-1.6,1.5,1.1,2.9,2.2,1.2,6.2-.7,5.3-3.4-.5-.6-2.6-.2-3.4-.6-1.3-.7-2.7-1.4-4-2.1-1.7-.9-5.6-2.2-7.5-.9-4.6,3.1.3,11,1.9,14.2"/>
      <path id="path100" class="st6" d="M77.2,28.3c-4.7-1.1-7,2-8.4,5.1-1.3-.3-.8-2-.4-2.9.8-2.3,4.2-5.4,7-4.9,1.2.2,2.8,1.3,1.9,2.7"/>
      <path id="path102" class="st6" d="M99.9,33.6c0,0,.1,0,.2,0,1.1,2.2,2,4.5,3.3,6.5-.9,2.1-6.8,3.9-6.7.2,1.3-.6,3.5-.1,4.6-.8-.7-1.8-1.6-3.3-1.4-5.8"/>
      <path id="path104" class="st6" d="M79.6,33.7c1,1.8,1.3,3.8,2.8,5.2.6.6,1.9,1.4,1.3,3.1-.1.4-1.2,1.3-1.8,1.5-2.2.7-7.4.1-5.7-2.6,1.8,0,4.3,1.2,5.7-.1-1.1-1.7-2.9-5-2.2-7"/>
      <path id="path106" class="st6" d="M99.1,52.4c-3.4,2.2-7.1,4.5-12.6,4-1.2-1-1.6-3.3-.5-4.8.6,1,.2,2.9,1.9,3.2,3.1.5,6.7-1.9,9-2.8,1.4-2.3-.1-3.2-1.4-4.7-2.6-3.1-6-6.9-5.9-11.5,1-.8,1.1,1.1,1.3,1.5,1.3,3.1,4.7,7.1,7.2,9.8.6.7,1.6,1.3,1.7,1.7.3,1.3-.8,2.8-.7,3.6"/>
      <path id="path108" class="st6" d="M54.9,50.1c-1.1-.6-1.3-3.2-2.5-3.3-1.8-.1-1.4,3.4-1.4,5.5-1.2-1.1-1.4-4.5-.5-6.2-1-.5-1.5.6-2,.9.7-5.3,7.7-2.4,6.5,3.1"/>
      <path id="path110" class="st6" d="M101.2,54.6c-1.6,3-3.8,6.2-8.3,6.3,0-1-.2-2.4,0-3,3.5-.3,5.7-2.1,8.3-3.3"/>
      <path id="path112" class="st6" d="M79.3,56.5c2.9,1.5,8.3,1.7,12.3,1.6.2.9.2,1.9.2,3-5.1.3-11.1-1-12.5-4.6"/>
      <path id="path114" class="st6" d="M78.7,59.3c2,5.1,9,4.5,14.8,4.3-.3.7-.8,1.4-1.5,1.7-1.9.8-7,1.3-9.7,0-1.7-.9-2.7-2.9-3.6-4-.4-.6-2.6-2,0-2"/>
      <path id="path116" class="st5" d="M98.8,87.3c-2.4,4.1-4.6,8.2-7.5,11.8,1.2-3.5,1.7-9.3,1.9-13.7,2.5-1.2,4.6.3,5.6,1.9"/>
      <path id="path118" class="st6" d="M111.6,101.9c-2.7.5-4.5,3.1-7.1,2.9,1.4-2,3.9-2.9,7.1-2.9"/>
      <path id="path120" class="st6" d="M112.8,106.1c-2.2.2-4.7.6-6.9.4,1-1.6,5-1,6.9-.4"/>
      <path id="path122" class="st6" d="M113.5,109.6c-2.4,0-5.5,0-7.8-.2,1.4-1.5,6.2-.5,7.8.2"/>
      <path id="path124" class="st3" d="M94.3,119.4c.3,3.1,1.6,6.1,1.4,9.5-1.3.5-2.1.8-3.9.8-.1-2.8-.5-7.2-.4-9.9.9,0,2.2-.6,2.9-.4"/>
      <path id="path126" class="st8" d="M90.4,74.4c-1.2.8-2.3,1.8-3.4,2.6-2.6.1-4-.2-5.9-1.7,0-.1.2,0,.2-.2,2.8,1.2,6.3-.5,9.1-.8"/>
      <path id="path128" class="st5" d="M75.7,93.4c.8-3.3,3.8-5,6.5-6.9,2.8,3.6,4.5,8.1,6.4,12.6-4.4-1.3-9-3.5-12.9-5.7"/>
      <path id="path130" class="st6" d="M91.4,119.9c-.1,2.7.3,7.1.4,9.9,1.8,0,2.6-.4,3.9-.8.2-3.3-1.1-6.4-1.4-9.5-.7-.2-2,.5-2.9.4ZM63.3,104.5c1.2,10.9,2.9,20.1,6.1,29.8,7,2.1,15.4,2.3,21.6.4-1.1-5.5-.6-12.1-1.3-17.9-.5-4.4-.2-8.8-.9-13.2-7.5-1.6-18.1-.4-25.5,1ZM90.6,103.5c0,4.7.2,9.3.6,14,1.8-.3,3-.5,4.7-.8-.5-4.5-.5-9.6-1.6-13.6-1.3,0-2.4,0-3.7.4ZM99.7,102.8c-.9-.2-1.8,0-2.7,0,.4,3.8,1.3,8,1.6,12.1,1.3,0,2-.6,3-.8,0-3.5-.3-8.4-2-11.3h0ZM113.5,115.4c2.7-.7,4.4-3.9,3.6-7.3-.5-2.3-1.4-6.5-2.4-8-.7-1.1-2.6-2.5-4.2-1.5-2.5,1.6-6.9,2.1-8.7,4,.9,3,1.2,7.2,1.6,11,3.1.2,6.9-.9,9.5.3-1.8.6-4.2.6-5.7,1.4,1.3.6,4.3.5,6.2,0h0ZM88.6,99.1c-1.9-4.4-3.6-9-6.4-12.6-2.7,1.8-5.7,3.5-6.5,6.9,3.9,2.2,8.4,4.4,12.9,5.7ZM93.3,85.4c-.2,4.4-.7,10.2-1.9,13.7,2.8-3.6,5.1-7.8,7.5-11.8-1-1.6-3.1-3-5.6-1.9ZM88,83.6c-1.1-.1-2,1.2-3.4.6-.3.4-.6.7-.9,1.1,3.1,3.7,4.4,8.9,6.8,13.3,1.3-4.2,1.1-8.7,1.4-13.3-1.7.1-2.7-1.6-3.9-1.7ZM84.6,79.1c-.1,1.3.2,1.7.4,3.1,4.2,1.3,3.4-5.7-.4-3.1ZM80,77.6c-1.8-1-4.5-2-6.8-2.5-2.9-.5-2.6,3.9-2.5,6.6,0,2.1,1.2,4.3,1.7,5.7.2.7.3,1.3.8,1.5,1,.2,4.2-1.1,5.2-1.6,2-1.1,3.5-2.8,5.1-3.9,0-.6,0-1.1,0-1.7-1-.5-2.2-.9-3.6-.9,1-.5,2.5-.5,3.4-1.1,0-.2,0-.4,0-.7-1.7-.1-2.3-.9-3.4-1.5ZM62.9,74.5c-1.5,1.5,4.2,3.6,6,3.7,0-1,.5-1.9.4-2.5-2.1-.4-4.9-.1-6.4-1.1ZM81.2,75.2c0,.1-.2,0-.2.2,1.9,1.5,3.3,1.8,5.9,1.7,1.2-.9,2.2-1.8,3.4-2.6-2.8.3-6.3,2-9.1.8ZM98,80.3c0-1.7-.5-5.1-1.6-5.7-2.2-1.3-6,2.6-7.7,3.1.2.5.5.9.5,1.6,1-.2,2.1,0,3,.3-1,.1-2,.1-2.7.6-.2.7,0,1.6,0,2.5,2.3.6,4.9,1,7.8,1.1.6-.7.8-2.1.7-3.5ZM60.4,76c-.5-.3-3.6-4.4-4.1-4.3-5.7,2.3-11,6.1-15.8,9.8,4.5,9.8,6.4,21.7,6.7,33.2,5.2,2.4,9.8,5.9,16.8,6.3-.8-5.8-1.6-10.9-2-16.4-1.8-.7-4.3,0-6-.2,0-2,2.5-.9,2.8-2.2.2-1-1.4-1.1-.9-2.7,1.3.5,2,1.5,3.4,1.9,1.3-2.8,0-7.7.2-10,0-.4.2-2.4,1.2-2.1.9.3,0,5.2,0,7.4,0,2-.2,4,.6,5.2,6.8-.9,13.8-1.5,21.2-1.7-1.6-.7-3.6-1.4-5.7-2.6-1.1-.6-4.8-2-5.1-3.1-.5-1.7,1.4-2.7,1.7-4.2-3.4,1.9-4.1-1.8-4.9-4.4-.7-2.4-1.2-4.1-1.3-5.5-3-1.4-6.1-2.8-8.7-4.7h0ZM95,72.2c4.8-2.3,5.6,8.6,3.7,12.1.3,1,1.3,1.5,1.7,2.4-2.7,4.8-5.6,9.2-8.3,13.9,2-1.3,4.9-.2,7.3-1.2.9-.3,1.5-2.3,2.1-3.9,1.8-4.4,3.7-9.9,4.5-14,.2-.9.7-3,.6-3.9-.2-1.5-2.3-2.6-3.3-3.6-1.9-1.7-3.1-3.2-5.1-4.9-.8,1.2-2.6,2-3.2,3h0ZM49.6,30c-2.3,2.5-1.8,7.2-1.5,10.5,4.1-2.6,9.5.2,9.5,4.6,2,0,.7-2.4.4-4-1.2-5,1.9-10.5.1-15.1-3.5.3-6.4,1.7-8.5,4h0ZM65.8,15.6c-5.1,1.5-11.7,5.2-13.8,9.8,1.6-.2,2.8-1.1,4.4-1.2.6,0,1.4.3,2.1,0,1.4-.3,2.6-3.5,3.6-4.6,1-1.1,2.3-1.6,3.1-2.7.5-.3,1.3-.2,1.4-1.1-.2-.3-.5-.4-.8-.4ZM92.5,16.9c-5.3-3-14.3-5.3-20-2.4-4.6,2.3-10.7,6-12.9,10.8,2,4.6-.6,8.8-.7,13.5,0,2.5,1.2,4.7,1.3,7.4-.7,1.1-2.7,1.2-4.2,1.2-.5-2.4-1.3-5.1-3.8-5.4-3.5-.4-6,2.5-6.2,5.5-.2,3.6,2.7,9.4,6.9,9,1.6-.2,2-1.8,3.7-1.7.9,1.9-1.5,2.5-1.7,3.8,0,.3.2,1.7.4,2.3.8,3.1,2.4,7.1,4.1,9.5,2.1,3,6.2,3.4,10.6,3.7.8-1.7,3.7-1.6,5.6-1.1-2.3-.9-4.4-3.1-6.1-5-2-2.2-4-4.6-4.1-7.5,3.8,5.3,6.9,9.9,13.8,12.2,5.2,1.8,11.3-.8,15.3-3.6,1.7-1.2,2.7-3,3.8-4.7,4.4-6.4,6.5-15.5,6-24.3-.2-3.6-.2-7.3-1.4-9.7-1.3-2.6-5.6-4.8-8.1-2.5-.5-2.5,2.1-4,5.1-3.1-2.2-2.8-4.4-6.1-7.5-7.8h0ZM102.4,99c4.2-2.1,11.9-5.6,14.5,0,1,2.1,2.1,5.5,2.6,7.6.7,3-.8,9.3-3.8,10.3-2.7.9-5.9.8-9.2.2-.4-.3-.8-.9-1.1-1.5-2.3,0-4.5.1-6.4,1.1.2,1.7-1,2-2.1,2.4-.8,3.2,1.6,7.4,1,10.4-.4,2.1-3,2.4-4.9,2.8,0,1.2,0,2.1.2,3.1-.4,1.6-2.4,2.5-4.2,2.7-6,.7-15.2,1.1-21.1-1-1.6-4-2.9-8.8-4.3-13.4-5.7.6-10.3-2.4-14.6-4.4-1.5-.7-3.6-1.1-4.1-2.3-.5-1.2-.3-3.4-.5-5.5-.3-5.3-.6-10.5-2-16-.6-2.5-1.7-4.6-2.5-7-.7-2.2-2-4.9-2.3-7.1-.5-3.2,2.6-3.4,4.5-4.8,3-2.2,5.4-3.4,8.6-5.3,1-.6,3.9-2,4.2-2.7.7-1.3-1.1-3.2-1.6-4.3-.8-1.7-1.2-3.1-1.3-4.7-2.7-.4-4.8-2.1-6.1-3.9-2.1-3-3.5-8.7-1.7-12.9.1-.3.8-1,.9-1.5.2-1-.4-2.4-.4-3.5-.2-5.6.9-10.4,4.7-12,1.5-6.1,7-8.1,12.1-11.1,1.9-1.1,4-1.8,6.2-2.6,7.8-2.9,19.8-2.3,26.3,2.6,2.8,2.1,7.2,6.5,8.7,9.7,4.2,8.4,3.9,22.4,1,32.7-.4,1.4-1,3.4-1.7,5-.6,1.2-2.3,3.5-2.1,4.5.2,1.1,3.9,3.9,4.7,4.6,1.4,1.4,4.1,3.2,4.4,4.9.2,1.8-.8,4.4-1.3,6.2-1.8,6-3.5,11.5-5.5,16.8"/>
      <path id="path132" class="st1" d="M74.6,57.8c.2-.3,1.5-.8,3.2,0,0,0-2.1.3-1.9,3.8l-.9-.2s-.9-3.1-.5-3.7"/>
      <path id="path134" class="st12" d="M89.7,87.3c0,.5-.4.9-.9.9s-.9-.4-.9-.9.4-.9.9-.9.9.4.9.9"/>
      <path id="path136" class="st12" d="M90.6,91.6c0,.5-.4.9-.9.9s-.9-.4-.9-.9.4-.9.9-.9.9.4.9.9"/>
    </g>
  </g>
</svg>