<?xml version="1.0" encoding="UTF-8"?>
<svg id="Layer_1" xmlns="http://www.w3.org/2000/svg" version="1.1" viewBox="0 0 149 149">
  <!-- Generator: Adobe Illustrator 29.2.1, SVG Export Plug-In . SVG Version: 2.1.0 Build 116)  -->
  <defs>
    <style>
      .st0 {
        fill: #e7d193;
      }

      .st0, .st1, .st2, .st3, .st4, .st5, .st6, .st7, .st8, .st9, .st10, .st11 {
        fill-rule: evenodd;
      }

      .st1 {
        fill: #b93346;
      }

      .st2 {
        fill: #bfac91;
      }

      .st3 {
        fill: #e1c8a5;
      }

      .st4 {
        fill: #ead698;
      }

      .st5 {
        fill: #5f655d;
      }

      .st6 {
        fill: #e0c59b;
      }

      .st7 {
        fill: #eef7f8;
      }

      .st8 {
        fill: #ead799;
      }

      .st9 {
        fill: #292c2d;
      }

      .st10 {
        fill: #f4eeaa;
      }

      .st11 {
        fill: #e9d294;
      }
    </style>
  </defs>
  <path class="st1" d="M45,67.4s-17.6,12.4-18.3,17.1l1.3-.3s21-13.9,37.7-15.6l.4-2.1-21.2,1M72.6,65.6l-13.8,9.8.7.6c.6-.5,24.6-7.8,24.6-7.8l5.1-3.2c-3.4.4-16.6.5-16.6.5M84.6,77.5c9.8,0,24.6-9.6,24.6-9.6l-4.8-.9c-.2.2-7.7-.3-7.7-.3l-3.5-1-8.4,9.6-.7,1.7c.6-.2.5.5.5.5M43.1,113.9c0,0-.1,0-.2,0-.4-.3-.8-.7-1.1-1l1.3,1.1h0ZM116.7,108.2l-3,.9-14-.3-8.8-6.8-10.6,2.7-12.3-1.1-6.9,7.5-12.9,3.9-6.4-2-.3-.3,2.9,7.1s6.5,7,10.2,7.8c3.7.8,10.3,0,15.2-.8,5-.8,8.9-2.5,10.5-5.4,1.6-2.9,1.8-3.7,1.8-3.7,0,0,4.7,6.7,8.8,7.4,4.1.8,16.2-3.4,16.2-3.4,0,0,7.4-2,8.7-4.5,1.3-2.5,4.7-10.8,4.7-10.8l-3.7,2h0Z"/>
  <path class="st10" d="M128.6,58.1c0-.4,0-.8-.1-1.1,0-.3,0-.5-.1-.8-1-.9-2.2-1.6-3.4-2.3-1.3-.8-2.7-1.4-4-2.1-1.4-.6-2.8-1.2-4.2-1.8-.7-.3-1.4-.6-2.1-.8-.7-.3-1.4-.5-2.2-.8,1.5.3,3,.6,4.5,1,1,.3,1.9.5,2.9.8-6.8-17.9-23.2-29.5-41-29.5s-34.2,11.6-41,29.5c1-.3,1.9-.6,2.9-.8,1.5-.4,3-.7,4.5-1-.7.3-1.4.5-2.2.8-.7.3-1.4.5-2.1.8-1.4.6-2.8,1.2-4.2,1.8-1.4.6-2.7,1.3-4,2.1-1.2.7-2.3,1.4-3.4,2.3-.1.6-.2,1.3-.2,1.9,0,.8,0,1.5,0,2.3,0,1.5,0,3.1.3,4.6.2,1.5.5,3,.9,4.5.2.7.4,1.4.7,2.2.1.3.3.7.4,1,0,.2.2.3.2.5v.2c.2,0,.3.1.4.2l.7.3c.4.2.9.4,1.3.6h0c0,0-1.3-4.9-1.3-4.9.3,0,2.7-.7,6.8-1.5-.3,0-.7-.1-1-.2-.9-.2-1.9-.5-2.8-.9-.4-.2-.9-.4-1.3-.6-.4-.2-.8-.5-1.1-.9,4.5,1.5,13.9.8,22.2,0,7.6-.8,15.3-1.3,22.9-1.3,7.7,0,15.3.5,22.9,1.3,8.3.9,17.7,1.5,22.3,0-.3.4-.7.6-1.1.9-.4.2-.9.4-1.3.6-.9.4-1.8.6-2.8.9-.1,0-.3,0-.4,0,4.5.8,7.2,1.5,7.4,1.6l-1.2,4.6c.2-.1.5-.2.7-.3l.7-.3c.1,0,.2-.1.3-.2v-.2c.2-.2.3-.3.3-.5.2-.3.3-.7.4-1,.3-.7.5-1.4.7-2.2.4-1.5.7-3,.9-4.5.2-1.5.3-3,.3-4.6,0-.8,0-1.5-.1-2.3"/>
  <path class="st3" d="M84,121.6c-.6,0-1.2.2-1.8.2-.4,0-.8,0-1.2,0h-.1c.5-1,.8-1.8,1.1-2.4.5.6,1.2,1.4,2,2.2M85.3,123c1.9,1.8,4.2,2.9,6.7,3.1-4.3,1.7-8.3,2.4-11.4,2.6-3.1.2-6.2-.2-9.3-1,.3,0,.4,0,.7-.1.3,0,5.8-.7,8.2-4.4h.2s.6,0,.6,0c.4,0,.8,0,1.2,0,.9,0,1.8-.2,2.8-.4l.3.3"/>
  <path class="st5" d="M90.6,67.7c-.2.3-.4.5-.6.8-1.1,1.4-2.6,3.1-4.4,4.9-2.1,0-4.3-.1-6.4-.1-3.6,0-7.1,0-10.5.3,4.7-1.9,10.3-3.8,16.4-5,1.8-.3,3.6-.6,5.5-.8M63.1,69.8c-1.7,1.2-3.6,2.7-5.4,4.5-4.1.4-8.1.9-12.2,1.6,5.2-2.4,11.1-4.6,17.6-6.1M120.5,79.5l-1.9,13.4-9.2,6.4-23.9-2.7-3.6-11.8c0-.3-.3-.5-.6-.5-.9-.1-1.7-.2-2.3-.2s-1.4,0-2.3.2c-.3,0-.5.3-.6.5l-3.5,11.5-23.7,5.3-9.4-6.6-1.9-15c.4-.2.8-.5,1.2-.7.6-.1,1.2-.3,2-.4l1.7,14.2c0,.2.1.4.3.5l6.5,4.5c.2.1.4.2.6.1l19.5-4.3c0,0,.1,0,.2,0,.2,0,.3-.3.4-.5l3.5-11.6c.9-.2,3.4-.8,5.5-.8s4.5.6,5.5.8l3.5,11.6c0,.3.4.5.7.6l19.5,2.2c.2,0,.4,0,.5-.1l6.5-4.5c.2-.1.3-.3.3-.5l1.7-12.1c1.3.2,2.4.5,3.2.7M122.9,71.1l-1.7,6.4c-3.4-.8-11-2.2-21.3-3.2,3.4-1.4,6.8-3.2,9.9-5.5,6.1.9,10.6,1.8,13,2.3"/>
  <path class="st6" d="M83.3,75.3c-.9.8-1.9,1.5-3,2.1l-3.4,2.1c-1.4.2-2.8.5-4.1.8-.3,0-.5.3-.5.5l-3.5,11.6-18.7,4.2-5.9-4.1-1.7-13.9c3.4-.6,7.8-1.3,13.2-1.9-.6.7-1.1,1.4-1.7,2.2l-3.2,4.6,4.7-3.1c0,0,3-2,7.9-4.4,5.3-.4,10.6-.6,15.9-.6,1.4,0,2.8,0,4.1,0h0ZM54.1,91c1.3-.7,2.8-.6,5.2-.6.3,0,.5,0,.8,0,.2,0,.5,0,.7,0,2.4,0,4.4.2,4.4-3.6,0-3.8-1.7-6.9-4.2-6.9-2.4,0-4.8,3.1-4.6,6.9,0,1,.2,1.7.4,2.2-2.1.5-2.7,1.8-2.7,1.9ZM115.7,78.5l-1.7,11.8-6,4.2-18.7-2.1-3.5-11.5c0-.3-.3-.5-.5-.5-.1,0-2.4-.7-4.9-.9h.4c.4,0,6.8-.8,14.6-3.5,8.5.7,15.5,1.7,20.3,2.6h0ZM103.8,89.5c0,0-.5-1.6-2.8-1.4.3-.6.4-1.3.3-2.4-.3-3.8-2.5-6.8-4.9-6.7-2.4,0-4,3.2-3.8,7,.1,3.8,2.2,3.8,4.6,3.7,3.3,0,5-1.1,6.7-.3Z"/>
  <path class="st2" d="M83.3,75.3c-.9.8-1.9,1.5-3,2.1l-3.4,2.1c-1.4.2-2.8.5-4.1.8-.3,0-.5.3-.5.5l-3.5,11.6-18.7,4.2-5.9-4.1-1.7-13.9c3.4-.6,7.8-1.3,13.2-1.9-.6.7-1.1,1.4-1.7,2.2l-3.2,4.6,4.7-3.1c0,0,3-2,7.9-4.4,5.3-.4,10.6-.6,15.9-.6,1.4,0,2.8,0,4.1,0h0ZM54.1,91c1.3-.7,2.8-.6,5.2-.6.3,0,.5,0,.8,0,.2,0,.5,0,.7,0,2.4,0,4.4.2,4.4-3.6,0-3.8-1.7-6.9-4.2-6.9-2.4,0-4.8,3.1-4.6,6.9,0,1,.2,1.7.4,2.2-2.1.5-2.7,1.8-2.7,1.9ZM115.7,78.5l-1.7,11.8-6,4.2-18.7-2.1-3.5-11.5c0-.3-.3-.5-.5-.5-.1,0-2.4-.7-4.9-.9h.4c.4,0,6.8-.8,14.6-3.5,8.5.7,15.5,1.7,20.3,2.6h0ZM103.8,89.5c0,0-.5-1.6-2.8-1.4.3-.6.4-1.3.3-2.4-.3-3.8-2.5-6.8-4.9-6.7-2.4,0-4,3.2-3.8,7,.1,3.8,2.2,3.8,4.6,3.7,3.3,0,5-1.1,6.7-.3Z"/>
  <path class="st3" d="M123.9,83.7c.3.2.5.8.3,3.7-.3,3.5-1.8,9.6-2.7,10.6-1,.2-3.1,0-4.4-.3.2-.9.3-1.3.5-2.2l2.2-1.6c.2-.1.3-.3.3-.5l1.6-11c1,.5,1.9,1.1,2.2,1.3M41.1,98.1c.1.4.2.8.4,1.2-1.2.4-3.7.7-4.8.5-.9-.9-2.6-7.3-3-10.7-.3-2.8,0-3.3.2-3.6.3-.3,1.5-1,2.6-1.5l1.4,11.5c0,.2.1.4.3.5l2.9,2M86.6,98.2v.7c0,0-2.7,2.4-6.8,2.9-4.2.5-7.4-2-7.4-2,.1.4.3,1.4,1.3,2.3-1.2-.1-2.4-.2-3.6-.2-.5,0-.9,0-1.4,0-2.6.1-6.2,4-8.7,7.9-1.2.4-5.1,1.6-9.6,3-4.2-5.8-6.3-11.8-6.5-12.4h0c0-.2-.2-.5-.2-.7l1.1.8h0s2.7,1.9,2.7,1.9l.9.6c.1,0,.3.1.4.1,0,0,.1,0,.2,0l24.5-5.5c.3,0,.5-.3.6-.5l3.5-11.5c.6,0,1.1-.1,1.6-.1s1,0,1.6.1l3.6,11.9c0,.3.4.5.7.6l1.7.2"/>
  <path class="st3" d="M114.6,97.6l.8-.6c-.1.5-.3,1.1-.4,1.6-1.1,3.5-2.4,6.6-3.8,9.4-.3,0-.7,0-1,0-1.1,0-2.3,0-3.5-.2-2.2-.2-5.7-.6-6.7-.7-2.3-1.8-4.6-3.6-6.9-5.4-.1,0-.2-.2-.3-.2-.5-.4-1-.9-2.1-.9s-2.4.4-5.9,1.4c1.8-1.4,1.8-3.1,1.8-3.1v-.7c0,0,23.1,2.6,23.1,2.6.2,0,.4,0,.5-.1l2.3-1.6,2.1-1.5"/>
  <path class="st0" d="M97.6,49.2c0,2,0,5.8-.9,9.2,0,.1,0,.3,0,.4-1.2-.1-2.4-.2-3.6-.3,1.4-2.9,1.7-5.9,1.7-7,1-.7,2.1-1.6,2.9-2.3M62.9,51.5c0,1.1.4,4.1,1.7,7-1.2,0-2.4.2-3.6.3,0-.1,0-.3,0-.4-1-3.5-1-7.2-.9-9.2.8.7,1.8,1.6,2.9,2.3"/>
  <path class="st9" d="M96.2,83.9c.7,0,1.2-.6,1.2-1.3,0-.7-.6-1.2-1.3-1.2,0,0,0,0,0,0-.7,0-1.2.6-1.2,1.3,0,0,0,0,0,0,0,.7.6,1.2,1.3,1.2ZM103.8,89.5c-1.6-.8-3.4.2-6.7.3-2.4,0-4.5.1-4.6-3.7-.1-3.8,1.4-7,3.8-7,2.4,0,4.6,2.9,4.9,6.7,0,1,0,1.8-.3,2.4,2.3-.3,2.8,1.3,2.8,1.4h0Z"/>
  <path class="st7" d="M97.4,82.6c0,.7-.5,1.2-1.2,1.3-.7,0-1.2-.5-1.3-1.2,0-.7.5-1.2,1.2-1.3,0,0,0,0,0,0,.7,0,1.2.5,1.3,1.2,0,0,0,0,0,0"/>
  <path class="st9" d="M61.4,84.8c.7,0,1.2-.6,1.2-1.3s-.6-1.2-1.3-1.2c-.7,0-1.2.6-1.2,1.3s.6,1.2,1.3,1.2c0,0,0,0,0,0ZM65.2,86.8c0,3.8-2,3.6-4.4,3.6-.2,0-.5,0-.7,0-.3,0-.5,0-.8,0-2.4,0-3.9-.1-5.2.6,0,0,.6-1.4,2.7-1.9-.2-.5-.4-1.2-.4-2.2-.1-3.8,2.2-6.9,4.6-6.9,2.4,0,4.1,3.1,4.2,6.9Z"/>
  <path class="st7" d="M62.6,83.5c0,.7-.6,1.2-1.2,1.2-.7,0-1.2-.5-1.2-1.2,0-.7.5-1.3,1.2-1.3s1.3.5,1.3,1.2"/>
  <path class="st4" d="M46,61.3l-.3-.5v-1.4s.7-8.3.7-8.3l12.7-3.1.8,10.7c-.6-.8-1.5-2.7-2.1-5.3-.3-1.4-1.3-1.8-2.4-1.8s-2.1.3-3,.5c-1.9.4-4.3,1.1-4.7,2-.8,1.9-1.1,6.8-1.1,6.8l-.7.4M111.8,61.3l-.7-.4s-.4-4.9-1.1-6.8c-.4-1-2.8-1.6-4.7-2-.9-.2-2-.5-3-.5s-2.1.4-2.4,1.8c-.6,2.6-1.5,4.5-2.1,5.3l.8-10.7,12.7,3.1.6,7.1v2.8s-.2.3-.2.3"/>
  <path class="st8" d="M91.9,59.4h-25.7s-1.3-3-1.3-3l-1-5.1-2.1-1.7v-12s2.9-8.7,2.9-8.7c0,0,.5,25.7,6.5,25.7h15.6c6,0,6.3-25.7,6.3-25.7l3.9,14.4-2.8,8.1v2.3c-.1,0-1.1,3.6-1.1,3.6l-1.2,2.1M118,64l-1.4-.7,1.4.7M116.5,63.3l-4.6-1.4v-.9s.2-.4.2-.4l-.2-2.4v-5.4s1.3,8.9,4.5,10.5"/>
  <path class="st11" d="M111.9,61v-2.8s.2,2.4.2,2.4l-.2.4"/>
  <path class="st8" d="M39.7,64l1.5-.7-1.5.7M41.1,63.3c3.3-1.6,4.5-10.5,4.5-10.5v6.6c0,0,0,1.2,0,1.2v.2c.1,0,.1,1.1.1,1.1l-4.6,1.4"/>
  <path class="st11" d="M45.7,60.8v-.2c-.1,0,0-1.2,0-1.2v1.4"/>
  <path class="st9" d="M59.6,58.9h0c-1.1-4.2-1.1-8.5-1-10.4l-11.6,3.3c-.8,5.1-.4,8.8-.3,9.5,1-.3,1.9-.5,2.9-.7,1.6-.4,3.2-.7,4.8-.9,1.6-.3,3.2-.5,4.9-.7.1,0,.2,0,.3,0ZM64.6,58.5c-1.4-2.9-1.7-5.9-1.7-7-1-.7-2.1-1.6-2.9-2.3,0,2.1,0,5.8.9,9.2,0,.1,0,.3,0,.4,1.2-.1,2.4-.2,3.6-.3ZM96.7,58.4c1-3.5,1-7.2.9-9.2-.8.7-1.8,1.6-2.9,2.3,0,1.1-.4,4.1-1.7,7,1.2,0,2.4.2,3.6.3,0-.1,0-.3,0-.4ZM111,61.3c0-.7.4-4.4-.3-9.5l-11.6-3.3c.1,2,.1,6.2-1,10.3h0c.1.2.2.2.3.2,3.3.4,6.5.9,9.7,1.6,1,.2,1.9.5,2.9.7h0ZM112.9,61.9c1.6.5,3.1,1,4.5,1.9-.8-.3-1.5-.5-2.3-.7-.8-.2-1.6-.4-2.4-.5-1.6-.3-3.2-.6-4.8-.7-1.6-.2-3.2-.4-4.8-.5-1.6-.1-3.2-.3-4.8-.4-6.5-.4-12.9-.5-19.4-.5-6.5,0-13,.1-19.4.5-1.6,0-3.2.2-4.8.4-1.6.1-3.2.3-4.8.5-1.6.2-3.2.4-4.8.7-.8.1-1.6.3-2.4.5-.8.2-1.6.4-2.3.7,1.4-.8,3-1.4,4.5-1.9.1,0,.3,0,.4-.1h0c0-.3-.6-4.5.4-10.6,0-.3.3-.5.5-.6l1.6-.5c.4-12.8,5.6-18.8,5.8-19-4.7,7.6-4.7,16.5-4.6,18.6l10.2-2.9h0s.1,0,.1,0h0c0,0,.1,0,.2,0h0s.1,0,.1,0h0s.1,0,.1,0h0s0,0,0,0h0s.3.3.7.7c-.1-3.4,0-13.1,4.7-21.1,0,.3-3.8,11-2.5,23,.4.3.8.6,1.3.9.2.1.3.4.3.6,0,0,0,3.9,1.8,7.1,0,0,0,0,0,.2,4.2-.3,8.4-.4,12.6-.4,4.2,0,8.4.1,12.6.4,0,0,0-.1,0-.2,1.7-3.2,1.8-7.1,1.8-7.1,0-.2.1-.5.3-.6.4-.3.8-.6,1.3-.9,1.3-12-2.4-22.7-2.5-23,4.6,8,4.8,17.7,4.7,21.1.2-.2.5-.5.7-.7h0s0,0,0,0h0s0,0,0,0h0s.1,0,.1,0h0c0,0,.1,0,.2,0h0s.1,0,.1,0h0s10.2,2.9,10.2,2.9c0-2.1.1-11.1-4.6-18.6.2.2,5.4,6.2,5.8,19l1.7.5c.3,0,.5.3.5.6,1,6.1.4,10.4.4,10.5h0c.1.1.3.2.4.2Z"/>
  <path class="st9" d="M89,36.8v-5.5h-19.9v5.5h2.7v-2.8h5.6v17.1h-2.3v3.2h7.8v-3.2h-2.3v-17.1h5.6v2.8h2.7ZM67.1,29.2h24v9.6h-6.8v-2.8h-1.5v13h2.3v7.3h-11.9v-7.3h2.3v-13h-1.5v2.8h-6.8s0-9.6,0-9.6Z"/>
  <path class="st1" d="M89,31.2v5.5h-2.7v-2.8h-5.6v17.1h2.3v3.2h-7.8v-3.2h2.3v-17.1h-5.6v2.8h-2.7v-5.5h19.9"/>
  <path class="st5" d="M35.4,71.1c1.3-.3,2.7-.6,4-.8-1.2.8-2.4,1.7-3.5,2.6l-.5-1.8"/>
  <path class="st2" d="M71.7,97.4s.3,1.8-2.2,2.6c-2.5.8-18.3,5.5-20.2,5.2-1.8-.3-6.4-3.3-6.4-3.3l-1.1-4,6.8,4.2,23.1-4.7M85.9,97.1s-.2,1.8,2.3,2.5c2.5.7,18.6,4.7,20.4,4.4,1.8-.3,6.2-3.6,6.2-3.6l.9-4-6.2,3.7-23.6-2.9"/>
  <path class="st2" d="M34.1,94.1s2.2,4.4,5.7,2.9l2.5.9-.3,1.9-5.3.7-1.4-.8-1.3-5.5M123.9,92.9s-3.6,4.6-7.1,3.1l-1.1.7.3,1.9,5.3.7,1.4-.8,1.3-5.5M68.4,127.4s13,6.6,27.7-2.4l-4.7-.3s-10.3,4.1-18.5,1.8l-4.5.9"/>
  <path class="st9" d="M39.3,70.2c-1.3.3-2.7.5-4,.8l.5,1.8c1.1-.9,2.3-1.8,3.5-2.6ZM41.5,99.2c-.1-.4-.2-.8-.4-1.2l-2.9-2c-.2-.1-.3-.3-.3-.5l-1.4-11.5c-1.1.6-2.3,1.3-2.6,1.5-.3.2-.5.8-.2,3.6.4,3.4,2.1,9.8,3,10.7,1.1.2,3.6-.1,4.8-.5ZM58.9,68.6c2.2-.6,4.4-1.1,6.7-1.6-3.3.1-6.6.3-9.8.5-1.9.1-3.8.2-5.7.4-.9,0-1.9.1-2.8.3-.3,0-.5,0-.8,0-2.5,1.5-11.9,7.4-18.4,15.2,6.3-4.4,17.3-11,30.9-14.8ZM57.7,74.3c1.8-1.8,3.7-3.3,5.4-4.5-6.4,1.5-12.4,3.7-17.6,6.1,4-.7,8.1-1.2,12.2-1.6ZM82.4,66.8c-1.3,0-2.6,0-3.9,0h0c-1.9,0-3.8,0-5.8,0l-3.5,1.7h0c-.5.3-5.2,2.6-9.6,6.8,3.9-2.1,9.7-4.8,16.5-6.8,2.1-.6,4.2-1.2,6.4-1.7ZM80.3,77.4c1-.6,2-1.3,3-2.1-1.4,0-2.7,0-4.1,0-5.7,0-11.1.2-15.9.6-4.9,2.4-7.8,4.3-7.9,4.4l-4.7,3.1,3.2-4.6c.5-.8,1.1-1.5,1.7-2.2-5.4.6-9.9,1.3-13.2,1.9l1.7,13.9,5.9,4.1,18.7-4.2,3.5-11.6c0-.2.2-.4.4-.4,0,0,.1,0,.2,0,.1,0,2-.6,4.1-.8l3.4-2.1ZM82.2,121.9c.6,0,1.2-.1,1.8-.2-.7-.7-1.4-1.4-2-2.2-.4.8-.7,1.6-1.1,2.5h.1c.4,0,.8,0,1.2,0h0ZM92,126.1c-2.5-.2-4.9-1.2-6.7-3.1l-.3-.3c-.9.2-1.8.3-2.8.4-.4,0-.8,0-1.2,0h-.6s-.2,0-.2,0c-2.5,3.7-8,4.4-8.2,4.4-.2,0-.4,0-.7.1,3.1.8,6.2,1.2,9.3,1,3.1-.2,7.1-.9,11.4-2.6ZM90,68.4c.2-.3.4-.5.6-.8-1.9.2-3.7.5-5.5.8-6.1,1.1-11.7,3-16.4,5,3.5-.2,7-.3,10.5-.3,2.2,0,4.4,0,6.4,0,1.8-1.7,3.3-3.5,4.4-4.9ZM106.9,67.9h0c-1.8-.1-3.7-.3-5.5-.4-2.6-.1-5.1-.3-7.7-.4-.3.4-.6.8-.9,1.3-1.4,1.9-4.2,5.4-7.7,8.3,5-.9,13.8-3.1,21.3-8.4.2-.1.4-.3.6-.4h0ZM115.3,97l-.8.6-2.1,1.5-2.3,1.6c-.2.1-.3.2-.5.1l-23-2.6-1.7-.2c-.3,0-.6-.3-.7-.6l-3.6-11.9c-.6,0-1.1-.1-1.6-.1s-1,0-1.6.1l-3.5,11.5c0,.3-.3.5-.6.5l-24.5,5.5c0,0-.1,0-.2,0-.2,0-.3,0-.5-.1l-.9-.6-2.7-1.9h0s-1.1-.8-1.1-.8c0,.2.2.5.2.7h0c.2.6,2.3,6.6,6.5,12.4,3.2-1,6.4-1.9,9.6-3,2.5-3.9,6.1-7.8,8.7-7.9.5,0,.9,0,1.4,0,1.3,0,2.5,0,3.6.2-.9-.9-1.1-1.9-1.3-2.3,0,0,3.3,2.6,7.4,2,4.2-.5,6.8-2.9,6.8-2.9,0,0,0,1.8-1.8,3.1,3.5-1.1,4.9-1.4,5.9-1.4s1.6.5,2.1.9c0,0,.2.2.3.2,2.3,1.8,4.6,3.6,6.9,5.4,1.1.1,4.6.5,6.7.7,1.3.1,2.4.2,3.5.2s.7,0,1,0c1.4-2.8,2.7-5.9,3.8-9.4.1-.5.3-1.1.4-1.6h0ZM114,90.3l1.7-11.8c-4.8-.9-11.7-1.9-20.3-2.6-7.7,2.7-14.2,3.4-14.6,3.5h-.4c2.5.2,4.8.9,4.9.9.3,0,.5.3.5.5l3.5,11.5,18.7,2.1,6-4.2ZM118.6,92.8l1.9-13.4c-1.1-.2-2.2-.5-3.2-.7l-1.7,12.1c0,.2-.1.4-.3.5l-6.5,4.5c-.2.1-.3.2-.5.1l-19.5-2.2c-.3,0-.6-.3-.7-.5l-3.5-11.6c-.9-.2-3.4-.8-5.5-.8s-4.5.6-5.5.8l-3.5,11.6c0,.3-.3.5-.6.5l-19.5,4.3c0,0-.1,0-.2,0-.2,0-.3,0-.4-.1l-6.5-4.5c-.2-.1-.3-.3-.3-.5l-1.7-14.2c-.7.1-1.4.3-2,.4-.4.2-.8.5-1.2.7l1.9,15,9.4,6.6,23.7-5.3,3.5-11.5c0-.3.3-.5.6-.6.9-.1,1.7-.2,2.3-.2s1.4,0,2.3.2c.3,0,.5.3.6.6l3.6,11.8,23.9,2.7,9.2-6.4ZM121.2,77.4l1.7-6.4c-2.4-.6-6.9-1.5-13-2.3-3.1,2.2-6.5,4-9.9,5.5,10.3,1,17.8,2.5,21.3,3.2ZM124.2,87.4c.3-2.9,0-3.5-.3-3.7-.3-.2-1.3-.8-2.2-1.3l-1.6,11c0,.2-.1.4-.3.5l-2.2,1.6c-.2.9-.2,1.3-.5,2.2,1.3.3,3.4.5,4.4.3.9-1,2.4-7.1,2.7-10.6h0ZM130.9,60.3c0,1.6,0,3.3-.1,4.9-.2,1.6-.5,3.3-.9,4.9-.2.8-.5,1.6-.8,2.4-.2.4-.3.8-.5,1.2,0,.2-.2.4-.3.6l-.2.3c0,.1-.1.2-.2.3l-.2.3h-.3c-.3.3-.5.4-.8.5l-.7.3c-.5.2-1,.4-1.5.6-.3.1-.6.3-.9.4l-.8,3.1s-.3,0-.7-.2v.3c.9.5,2.6,1.4,3.2,1.9,1.2,1,1.3,2.6,1,5.6-.1,1.5-.6,4.5-1.3,7.2-1.2,4.7-1.9,5.2-2.7,5.4-.4.1-1.1.2-1.7.2-1.3,0-3,0-4.2-.2-.3,1.1-1.2,3.8-2.9,7.3,0,0,.2,0,.2-.1,2.1-1.1,6.1-2.9,6.3-2.9l3.2-1.4-1.6,3.1c0,0-3.5,6.6-5.7,10.9-2.1,4.3-6.1,5.2-8.5,5.7-.4,0-.7.2-1,.2-1.7.5-5.2,1.3-8.2,2h-.1c-2,1.2-4,2.3-6.2,3.1-8.2,3.1-16.9,2.9-24.8,0-1.3.2-3,.4-5.2.6-1,.1-1.9.2-2.8.2-7.5,0-11.5-3.8-14.4-7.5-3.1-4-6.9-9.9-7.1-10.2l-2.2-3.4,3.7,1.7c1.8.8,7.1,3.3,8.6,4,.1,0,.2,0,.4-.1-2.5-3.6-4.6-7.7-6-12.2-1.2.4-3.1.7-4.6.7s-1,0-1.4-.1c-.8-.2-1.8-1-3.1-5.5-.7-2.6-1.3-5.5-1.5-7-.3-2.9-.3-4.4.9-5.4.7-.6,3.2-1.9,3.7-2.2v-.9c-7.9,4.6-12.5,8.6-12.6,8.7l-5.6,4.9,4-6.2c3.1-4.9,6.7-8.9,10.1-12-.1,0-.3-.1-.4-.2l-.7-.3c-.3-.1-.5-.2-.8-.4h-.3c0-.1-.2-.4-.2-.4,0-.1-.1-.2-.2-.3l-.2-.3c-.1-.2-.2-.4-.3-.6-.2-.4-.3-.8-.5-1.2-.3-.8-.6-1.6-.8-2.4-.4-1.6-.7-3.2-.9-4.9-.2-1.6-.2-3.3-.1-4.9,0-.8.1-1.6.2-2.5,0-.4.1-.8.2-1.2,0-.4.2-.8.3-1.3v-.3c0,0,.3-.2.3-.2,1.3-1,2.7-1.8,4.1-2.5,1.2-.5,2.4-1,3.6-1.5,3.4-9.3,9.1-17.6,16.7-23.3,7.8-5.9,17.1-9.1,26.7-9.1s18.8,3.1,26.7,9.1c7.6,5.8,13.4,14,16.7,23.3,1.2.4,2.4.9,3.6,1.5,1.4.7,2.8,1.4,4.1,2.5l.2.2v.3c.2.5.3.8.4,1.3,0,.4.1.8.2,1.2.1.8.2,1.6.2,2.5ZM40.9,49.9c-1.4.6-2.8,1.2-4.2,1.8-1.4.6-2.7,1.3-4,2.1-1.2.7-2.3,1.4-3.4,2.3,0,.3,0,.5-.1.8,0,.4,0,.8-.1,1.1,0,.8,0,1.5-.1,2.3,0,1.5,0,3.1.3,4.6.2,1.5.5,3,.9,4.5.2.7.4,1.4.7,2.1.1.4.3.7.4,1,0,.2.2.3.2.5v.2c.2,0,.3.1.4.2l.7.3c.4.2.9.4,1.3.6h0c0,0-1.3-4.9-1.3-4.9.3,0,2.7-.7,6.8-1.5-.3,0-.7-.1-1-.2-.9-.2-1.9-.5-2.8-.9-.4-.2-.9-.4-1.3-.6-.4-.2-.8-.5-1.1-.9,4.5,1.5,13.9.8,22.2,0,7.6-.8,15.3-1.3,22.9-1.3,7.7,0,15.3.5,22.9,1.3,8.3.9,17.7,1.5,22.3,0-.3.4-.7.6-1.1.9-.4.2-.9.4-1.3.6-.9.4-1.8.7-2.8.9-.1,0-.3,0-.4,0,4.5.8,7.2,1.5,7.4,1.6l-1.2,4.6c.2-.1.5-.2.7-.3l.7-.3c.1,0,.2-.1.3-.2v-.2c.2-.2.3-.3.3-.5.2-.3.3-.7.4-1,.3-.7.5-1.4.7-2.1.4-1.5.7-3,.9-4.5.2-1.5.3-3,.3-4.6,0-.8,0-1.5,0-2.3,0-.4,0-.8-.1-1.1,0-.3,0-.5-.1-.8-1-.9-2.2-1.6-3.4-2.3-1.3-.8-2.7-1.4-4-2.1-1.4-.6-2.8-1.2-4.2-1.8-.7-.3-1.4-.6-2.1-.8-.7-.3-1.4-.5-2.2-.8,1.5.3,3,.6,4.5,1,1,.3,1.9.5,2.9.8-6.8-17.9-23.2-29.5-41-29.5s-34.2,11.6-41,29.5c1-.3,1.9-.6,2.9-.8,1.5-.4,3-.7,4.5-1-.7.3-1.5.5-2.2.8-.7.3-1.4.5-2.1.8h0ZM81.6,115.3l.9,1.1s2,2.4,4.5,4.8c1.6,1.6,3.6,2.4,5.8,2.4s1.6,0,2.4-.3c.8-.2,1.6-.4,2.4-.6,3-.7,6.5-1.6,8.2-2,.4,0,.7-.2,1.1-.3,2.2-.5,5.3-1.2,6.9-4.5,1.2-2.4,2.9-5.6,4.1-7.9-1.1.5-2.2,1-2.9,1.4-1.2.6-2.8.9-4.8.9s-2.4-.1-3.7-.2c-2.6-.2-7.1-.8-7.2-.8h-.3s-.3-.3-.3-.3c0,0-4-3.1-7.1-5.6-.1,0-.2-.2-.4-.3q-.3-.3-.5-.3c-1,0-4,.9-10.4,2.9h-.4c0,.1-.4,0-.4,0,0,0-4.3-1.6-9.4-1.6s-.8,0-1.2,0c-.5,0-3.4,1.4-7,7.2l-.2.4h-.4c-4.3,1.5-8.7,2.8-13,4.1h-.4c0,.1-.4,0-.4,0,0,0-2.7-1.2-5.1-2.4,1.4,2,3.1,4.5,4.6,6.5,2.7,3.4,6,6.6,12.4,6.6s1.7,0,2.5-.1c6.5-.7,8.2-1,9.1-1.2.3,0,.5,0,.9-.1,0,0,5.4-.7,6.9-4.1,1.5-3.5,1.9-4.3,1.9-4.3l.5-1.5s0-.4.2-.5h0s0,0,0,0c.2.1.4.5.4.5h0Z"/>
</svg>