<?xml version="1.0" encoding="UTF-8"?>
<svg id="Layer_1" xmlns="http://www.w3.org/2000/svg" version="1.1" viewBox="0 0 192.1 184.9">
  <!-- Generator: Adobe Illustrator 29.2.1, SVG Export Plug-In . SVG Version: 2.1.0 Build 116)  -->
  <defs>
    <style>
      .st0 {
        fill: #fff;
      }
    </style>
  </defs>
  <g id="LOGO">
    <path class="st0" d="M188.9,73.2l-.3-.7L162.5,4.3c-.5-1.3-1.5-2.5-2.7-3.2-2.5-1.5-5.7-1.4-8,.4-1.1.9-1.9,2.1-2.3,3.5l-17.6,54H60.3L42.7,5c-.4-1.4-1.2-2.6-2.3-3.5-2.3-1.8-5.5-2-8-.4-1.2.8-2.2,1.9-2.7,3.2L3.5,72.5l-.3.7c-7.7,20.2-1.2,43.1,16.1,56.1h0c0,0,.2.2.2.2l39.8,29.8,19.7,14.9,12,9.1c2.9,2.2,6.9,2.2,9.8,0l12-9.1,19.7-14.9,40.1-30h.1c17.2-13.1,23.8-35.9,16.1-56.1Z"/>
  </g>
</svg>