<?xml version="1.0" encoding="UTF-8"?>
<svg id="Ebene_1" xmlns="http://www.w3.org/2000/svg" version="1.1" viewBox="0 0 103.32 118.95">
  <!-- Generator: Adobe Illustrator 30.2.0, SVG Export Plug-In . SVG Version: 2.1.1 Build 105)  -->
  <path d="M51.7,60.75L3.3,88.75l48.5,28,48.4-28-48.5-28Z" fill="#fbbe24"/>
  <path d="M102.9,29.35L52.3.15c-.3-.2-.8-.2-1.1,0L.5,29.35c-.3.2-.5.5-.5.9v58.4c0,.4.2.8.5.9l50.6,29.2c.2.1.4.2.5.2s.4-.1.5-.2l50.6-29.2c.3-.2.5-.6.5-.9V30.25c.3-.4,0-.7-.3-.9h0ZM101.3,86.95l-48.5-28V2.95l48.4,28v56h.1ZM51.7,116.75L3.3,88.75l48.4-27.9,48.4,27.9c.1.1-48.4,28-48.4,28Z" fill="#fff"/>
</svg>