<svg xmlns="http://www.w3.org/2000/svg" xmlns:xlink="http://www.w3.org/1999/xlink" width="1097" height="199" viewBox="0 0 1097 199"><defs><filter id="a" x="-10.5" y="-10.25" width="466" height="176.5" filterUnits="userSpaceOnUse"><feOffset input="SourceAlpha"/><feGaussianBlur stdDeviation="7.5" result="b"/><feFlood flood-opacity="0.102"/><feComposite operator="in" in2="b"/><feComposite in="SourceGraphic"/></filter><filter id="c" x="9" y="56.125" width="161" height="93.5" filterUnits="userSpaceOnUse"><feOffset input="SourceAlpha"/><feGaussianBlur stdDeviation="7.5" result="d"/><feFlood flood-opacity="0.102"/><feComposite operator="in" in2="d"/><feComposite in="SourceGraphic"/></filter><filter id="e" x="141" y="56.125" width="161" height="93.5" filterUnits="userSpaceOnUse"><feOffset input="SourceAlpha"/><feGaussianBlur stdDeviation="7.5" result="f"/><feFlood flood-opacity="0.102"/><feComposite operator="in" in2="f"/><feComposite in="SourceGraphic"/></filter><filter id="g" x="275" y="56.125" width="161" height="93.5" filterUnits="userSpaceOnUse"><feOffset input="SourceAlpha"/><feGaussianBlur stdDeviation="7.5" result="h"/><feFlood flood-opacity="0.102"/><feComposite operator="in" in2="h"/><feComposite in="SourceGraphic"/></filter><filter id="i" x="478.75" y="-10.25" width="208" height="94.5" filterUnits="userSpaceOnUse"><feOffset input="SourceAlpha"/><feGaussianBlur stdDeviation="7.5" result="j"/><feFlood flood-opacity="0.102"/><feComposite operator="in" in2="j"/><feComposite in="SourceGraphic"/></filter><filter id="k" x="899.5" y="-10.25" width="208" height="219.5" filterUnits="userSpaceOnUse"><feOffset input="SourceAlpha"/><feGaussianBlur stdDeviation="7.5" result="l"/><feFlood flood-opacity="0.102"/><feComposite operator="in" in2="l"/><feComposite in="SourceGraphic"/></filter><clipPath id="n"><rect width="1097" height="199"/></clipPath></defs><g id="m" clip-path="url(#n)"><line y1="67" x2="73" transform="translate(429.5 36.704)" fill="none" stroke="#ffbf1d" stroke-width="1"/><line y1="37" x2="73" transform="translate(429.5 36.704)" fill="none" stroke="#ffbf1d" stroke-width="1"/><line x1="517.5" y2="0.171" transform="translate(433 36.704)" fill="none" stroke="#ffbf1d" stroke-width="1"/><g transform="matrix(1, 0, 0, 1, 0, 0)" filter="url(#a)"><g transform="translate(12 12.25)" fill="#161b23" stroke="#fdbd1d" stroke-width="1" stroke-dasharray="5"><rect width="421" height="131.5" rx="5" stroke="none"/><rect x="0.5" y="0.5" width="420" height="130.5" rx="4.5" fill="none"/></g></g><text transform="translate(87.5 43.875)" fill="#fff" font-size="15" font-family="Inter-SemiBold, Inter" font-weight="600"><tspan x="-55.979" y="0">Monorepo-XYZ</tspan></text><g transform="matrix(1, 0, 0, 1, 0, 0)" filter="url(#c)"><g transform="translate(31.5 78.63)" fill="#161b23" stroke="#fdbd1d" stroke-width="1"><rect width="116" height="48.5" rx="5" stroke="none"/><rect x="0.5" y="0.5" width="115" height="47.5" rx="4.5" fill="none"/></g></g><text transform="translate(89.5 108.375)" fill="#fff" font-size="15" font-family="Inter-SemiBold, Inter" font-weight="600"><tspan x="-32.344" y="0">Artifact 1</tspan></text><g transform="matrix(1, 0, 0, 1, 0, 0)" filter="url(#e)"><g transform="translate(163.5 78.63)" fill="#161b23" stroke="#fdbd1d" stroke-width="1"><rect width="116" height="48.5" rx="5" stroke="none"/><rect x="0.5" y="0.5" width="115" height="47.5" rx="4.5" fill="none"/></g></g><text transform="translate(221.5 108.375)" fill="#fff" font-size="15" font-family="Inter-SemiBold, Inter" font-weight="600"><tspan x="-33.845" y="0">Artifact 2</tspan></text><g transform="matrix(1, 0, 0, 1, 0, 0)" filter="url(#g)"><g transform="translate(297.5 78.63)" fill="#161b23" stroke="#fdbd1d" stroke-width="1"><rect width="116" height="48.5" rx="5" stroke="none"/><rect x="0.5" y="0.5" width="115" height="47.5" rx="4.5" fill="none"/></g></g><text transform="translate(355.5 108.375)" fill="#fff" font-size="15" font-family="Inter-SemiBold, Inter" font-weight="600"><tspan x="-33.944" y="0">Artifact 3</tspan></text><g transform="matrix(1, 0, 0, 1, 0, 0)" filter="url(#i)"><g transform="translate(501.25 12.25)" fill="#161b22" stroke="#fdbd1d" stroke-width="1"><rect width="163" height="49.5" rx="5" stroke="none"/><rect x="0.5" y="0.5" width="162" height="48.5" rx="4.5" fill="none"/></g></g><text transform="translate(582.75 42.375)" fill="#fff" font-size="15" font-family="Inter-SemiBold, Inter" font-weight="600"><tspan x="-49.856" y="0">DevGuard CLI</tspan></text><g transform="matrix(1, 0, 0, 1, 0, 0)" filter="url(#k)"><g transform="translate(922 12.25)" fill="#161b22" stroke="#fdbd1d" stroke-width="1"><rect width="163" height="174.5" rx="5" stroke="none"/><rect x="0.5" y="0.5" width="162" height="173.5" rx="4.5" fill="none"/></g></g><g transform="translate(986.271 62.31)"><path d="M19.441,60.7,3.3,70.071l16.174,9.338,16.141-9.338L19.441,60.733Z" transform="translate(-2.199 -40.474)" fill="#fbbe24"/><path d="M34.316,9.8,17.442.1a.361.361,0,0,0-.367,0L.167,9.8A.35.35,0,0,0,0,10.1V29.581a.313.313,0,0,0,.167.3l16.875,9.738c.067,0,.133.067.167.067s.133,0,.167-.067L34.25,29.881a.4.4,0,0,0,.167-.3V10.1c.1-.133,0-.233-.1-.3h0Zm-.534,19.209L17.608,19.676V1L33.75,10.338V29.014ZM17.242,38.985,1.1,29.648l16.141-9.3,16.141,9.3L17.242,38.985Z" transform="translate(0 -0.05)" fill="#fff"/></g><text transform="translate(1003.5 141.098)" fill="#fff" font-size="15" font-family="Inter-SemiBold, Inter" font-weight="600"><tspan x="-36.123" y="0">DevGuard</tspan></text><text transform="translate(549.25 93)" fill="#fff" font-size="15" font-family="Inter-SemiBold, Inter" font-weight="600"><tspan x="-47.813" y="0">--assetName</tspan></text><text transform="translate(697.25 118.375)" fill="#fff" font-size="15" font-family="Inter-SemiBold, Inter" font-weight="600"><tspan x="-195.634" y="0">“yourorg/projects/yourproject/assets/</tspan><tspan y="0" fill="#fdbd1d">monorepo-xyz</tspan><tspan y="0">”</tspan></text><text transform="translate(555.25 157.375)" fill="#fff" font-size="15" font-family="Inter-SemiBold, Inter" font-weight="600"><tspan x="-54.316" y="0">--artifactName</tspan></text><text transform="translate(541.25 182.75)" fill="#fdbd1d" font-size="15" font-family="Inter-SemiBold, Inter" font-weight="600"><tspan x="-40.225" y="0">“artifact-1”</tspan></text><text transform="translate(633.25 182.75)" fill="#fff" font-size="15" font-family="Inter-SemiBold, Inter" font-weight="600" opacity="0.555"><tspan x="-41.536" y="0">“artifact-2”</tspan></text><text transform="translate(727.25 182.75)" fill="#fff" font-size="15" font-family="Inter-SemiBold, Inter" font-weight="600" opacity="0.399"><tspan x="-41.77" y="0">“artifact-3”</tspan></text></g></svg>