<svg xmlns="http://www.w3.org/2000/svg" xmlns:xlink="http://www.w3.org/1999/xlink" width="1134" height="370" viewBox="0 0 1134 370"><defs><filter id="a" x="-6.5" y="-6.063" width="466" height="176.5" filterUnits="userSpaceOnUse"><feOffset input="SourceAlpha"/><feGaussianBlur stdDeviation="7.5" result="b"/><feFlood flood-opacity="0.102"/><feComposite operator="in" in2="b"/><feComposite in="SourceGraphic"/></filter><filter id="c" x="13" y="60.313" width="161" height="93.5" filterUnits="userSpaceOnUse"><feOffset input="SourceAlpha"/><feGaussianBlur stdDeviation="7.5" result="d"/><feFlood flood-opacity="0.102"/><feComposite operator="in" in2="d"/><feComposite in="SourceGraphic"/></filter><filter id="e" x="145" y="60.313" width="161" height="93.5" filterUnits="userSpaceOnUse"><feOffset input="SourceAlpha"/><feGaussianBlur stdDeviation="7.5" result="f"/><feFlood flood-opacity="0.102"/><feComposite operator="in" in2="f"/><feComposite in="SourceGraphic"/></filter><filter id="g" x="279" y="60.313" width="161" height="93.5" filterUnits="userSpaceOnUse"><feOffset input="SourceAlpha"/><feGaussianBlur stdDeviation="7.5" result="h"/><feFlood flood-opacity="0.102"/><feComposite operator="in" in2="h"/><feComposite in="SourceGraphic"/></filter><filter id="i" x="-6.5" y="220.938" width="467" height="94.5" filterUnits="userSpaceOnUse"><feOffset input="SourceAlpha"/><feGaussianBlur stdDeviation="7.5" result="j"/><feFlood flood-opacity="0.102"/><feComposite operator="in" in2="j"/><feComposite in="SourceGraphic"/></filter><filter id="k" x="482.75" y="-6.063" width="208" height="94.5" filterUnits="userSpaceOnUse"><feOffset input="SourceAlpha"/><feGaussianBlur stdDeviation="7.5" result="l"/><feFlood flood-opacity="0.102"/><feComposite operator="in" in2="l"/><feComposite in="SourceGraphic"/></filter><filter id="m" x="483.5" y="220.938" width="208" height="94.5" filterUnits="userSpaceOnUse"><feOffset input="SourceAlpha"/><feGaussianBlur stdDeviation="7.5" result="n"/><feFlood flood-opacity="0.102"/><feComposite operator="in" in2="n"/><feComposite in="SourceGraphic"/></filter><filter id="o" x="932.5" y="-6.063" width="208" height="321.5" filterUnits="userSpaceOnUse"><feOffset input="SourceAlpha"/><feGaussianBlur stdDeviation="7.5" result="p"/><feFlood flood-opacity="0.102"/><feComposite operator="in" in2="p"/><feComposite in="SourceGraphic"/></filter><clipPath id="r"><rect width="1134" height="370"/></clipPath></defs><g id="q" clip-path="url(#r)"><line y1="67" x2="73" transform="translate(433.5 40.891)" fill="none" stroke="#ffbf1d" stroke-width="1"/><line y1="37" x2="73" transform="translate(433.5 40.891)" fill="none" stroke="#ffbf1d" stroke-width="1"/><line x1="517.5" y2="0.171" transform="translate(437 40.891)" fill="none" stroke="#ffbf1d" stroke-width="1"/><line x1="517.5" y2="0.171" transform="translate(438 267.891)" fill="none" stroke="#ffbf1d" stroke-width="1"/><g transform="matrix(1, 0, 0, 1, 0, 0)" filter="url(#a)"><g transform="translate(16 16.44)" fill="#161b23" stroke="#fdbd1d" stroke-width="1" stroke-dasharray="5"><rect width="421" height="131.5" rx="5" stroke="none"/><rect x="0.5" y="0.5" width="420" height="130.5" rx="4.5" fill="none"/></g></g><text transform="translate(91.5 48.063)" fill="#fff" font-size="15" font-family="Inter-SemiBold, Inter" font-weight="600"><tspan x="-55.979" y="0">Monorepo-XYZ</tspan></text><g transform="matrix(1, 0, 0, 1, 0, 0)" filter="url(#c)"><g transform="translate(35.5 82.81)" fill="#161b23" stroke="#fdbd1d" stroke-width="1"><rect width="116" height="48.5" rx="5" stroke="none"/><rect x="0.5" y="0.5" width="115" height="47.5" rx="4.5" fill="none"/></g></g><text transform="translate(93.5 112.563)" fill="#fff" font-size="15" font-family="Inter-SemiBold, Inter" font-weight="600"><tspan x="-32.344" y="0">Artifact 1</tspan></text><g transform="matrix(1, 0, 0, 1, 0, 0)" filter="url(#e)"><g transform="translate(167.5 82.81)" fill="#161b23" stroke="#fdbd1d" stroke-width="1"><rect width="116" height="48.5" rx="5" stroke="none"/><rect x="0.5" y="0.5" width="115" height="47.5" rx="4.5" fill="none"/></g></g><text transform="translate(225.5 112.563)" fill="#fff" font-size="15" font-family="Inter-SemiBold, Inter" font-weight="600"><tspan x="-33.845" y="0">Artifact 2</tspan></text><g transform="matrix(1, 0, 0, 1, 0, 0)" filter="url(#g)"><g transform="translate(301.5 82.81)" fill="#161b23" stroke="#fdbd1d" stroke-width="1"><rect width="116" height="48.5" rx="5" stroke="none"/><rect x="0.5" y="0.5" width="115" height="47.5" rx="4.5" fill="none"/></g></g><text transform="translate(359.5 112.563)" fill="#fff" font-size="15" font-family="Inter-SemiBold, Inter" font-weight="600"><tspan x="-33.944" y="0">Artifact 3</tspan></text><g transform="matrix(1, 0, 0, 1, 0, 0)" filter="url(#i)"><g transform="translate(16 243.44)" fill="#161b23" stroke="#fdbd1d" stroke-width="1"><rect width="422" height="49.5" rx="5" stroke="none"/><rect x="0.5" y="0.5" width="421" height="48.5" rx="4.5" fill="none"/></g></g><text transform="translate(74.5 273.688)" fill="#fff" font-size="15" font-family="Inter-SemiBold, Inter" font-weight="600"><tspan x="-37.643" y="0">Repo-ABC</tspan></text><g transform="matrix(1, 0, 0, 1, 0, 0)" filter="url(#k)"><g transform="translate(505.25 16.44)" fill="#161b22" stroke="#fdbd1d" stroke-width="1"><rect width="163" height="49.5" rx="5" stroke="none"/><rect x="0.5" y="0.5" width="162" height="48.5" rx="4.5" fill="none"/></g></g><text transform="translate(586.75 46.563)" fill="#fff" font-size="15" font-family="Inter-SemiBold, Inter" font-weight="600"><tspan x="-49.856" y="0">DevGuard CLI</tspan></text><g transform="matrix(1, 0, 0, 1, 0, 0)" filter="url(#m)"><g transform="translate(506 243.44)" fill="#161b22" stroke="#fdbd1d" stroke-width="1"><rect width="163" height="49.5" rx="5" stroke="none"/><rect x="0.5" y="0.5" width="162" height="48.5" rx="4.5" fill="none"/></g></g><text transform="translate(587.5 273.563)" fill="#fff" font-size="15" font-family="Inter-SemiBold, Inter" font-weight="600"><tspan x="-49.856" y="0">DevGuard CLI</tspan></text><g transform="matrix(1, 0, 0, 1, 0, 0)" filter="url(#o)"><g transform="translate(955 16.44)" fill="#161b22" stroke="#fdbd1d" stroke-width="1"><rect width="163" height="276.5" rx="5" stroke="none"/><rect x="0.5" y="0.5" width="162" height="275.5" rx="4.5" fill="none"/></g></g><g transform="translate(1019.271 113.293)"><path d="M19.441,60.7,3.3,70.071l16.174,9.338,16.141-9.338L19.441,60.733Z" transform="translate(-2.199 -40.474)" fill="#fbbe24"/><path d="M34.316,9.8,17.442.1a.361.361,0,0,0-.367,0L.167,9.8A.35.35,0,0,0,0,10.1V29.581a.313.313,0,0,0,.167.3l16.875,9.738c.067,0,.133.067.167.067s.133,0,.167-.067L34.25,29.881a.4.4,0,0,0,.167-.3V10.1c.1-.133,0-.233-.1-.3h0Zm-.534,19.209L17.608,19.676V1L33.75,10.338V29.014ZM17.242,38.985,1.1,29.648l16.141-9.3,16.141,9.3L17.242,38.985Z" transform="translate(0 -0.05)" fill="#fff"/></g><text transform="translate(1036.5 192.082)" fill="#fff" font-size="15" font-family="Inter-SemiBold, Inter" font-weight="600"><tspan x="-36.123" y="0">DevGuard</tspan></text><text transform="translate(553.25 97.188)" fill="#fff" font-size="15" font-family="Inter-SemiBold, Inter" font-weight="600"><tspan x="-47.813" y="0">--assetName</tspan></text><text transform="translate(701.25 122.563)" fill="#fff" font-size="15" font-family="Inter-SemiBold, Inter" font-weight="600"><tspan x="-195.634" y="0">“yourorg/projects/yourproject/assets/</tspan><tspan y="0" fill="#fdbd1d">monorepo-xyz</tspan><tspan y="0">”</tspan></text><text transform="translate(559.25 161.563)" fill="#fff" font-size="15" font-family="Inter-SemiBold, Inter" font-weight="600"><tspan x="-54.316" y="0">--artifactName</tspan></text><text transform="translate(545.25 186.938)" fill="#fdbd1d" font-size="15" font-family="Inter-SemiBold, Inter" font-weight="600"><tspan x="-40.225" y="0">“artifact-1”</tspan></text><text transform="translate(637.25 186.938)" fill="#fff" font-size="15" font-family="Inter-SemiBold, Inter" font-weight="600" opacity="0.555"><tspan x="-41.536" y="0">“artifact-2”</tspan></text><text transform="translate(731.25 186.938)" fill="#fff" font-size="15" font-family="Inter-SemiBold, Inter" font-weight="600" opacity="0.399"><tspan x="-41.77" y="0">“artifact-3”</tspan></text><text transform="translate(553.25 324.188)" fill="#fff" font-size="15" font-family="Inter-SemiBold, Inter" font-weight="600"><tspan x="-47.813" y="0">--assetName</tspan></text><text transform="translate(702 349.563)" fill="#fff" font-size="15" font-family="Inter-SemiBold, Inter" font-weight="600"><tspan x="-195.575" y="0">“yourorg/projects/yourproject/assets/</tspan><tspan y="0" fill="#fdbd1d">somethingelse</tspan><tspan y="0">”</tspan></text></g></svg>