<?xml version="1.0" encoding="UTF-8" standalone="no"?>
<!-- Created with Inkscape (http://www.inkscape.org/) -->

<svg
   xmlns:dc="http://purl.org/dc/elements/1.1/"
   xmlns:cc="http://creativecommons.org/ns#"
   xmlns:rdf="http://www.w3.org/1999/02/22-rdf-syntax-ns#"
   xmlns:svg="http://www.w3.org/2000/svg"
   xmlns="http://www.w3.org/2000/svg"
   xmlns:sodipodi="http://sodipodi.sourceforge.net/DTD/sodipodi-0.dtd"
   xmlns:inkscape="http://www.inkscape.org/namespaces/inkscape"
   id="svg2"
   version="1.1"
   inkscape:version="0.91 r13725"
   xml:space="preserve"
   width="216.29962"
   height="45.74025"
   viewBox="0 0 216.29962 45.740248"
   sodipodi:docname="Alpine_logo.svg"><metadata
     id="metadata8"><rdf:RDF><cc:Work
         rdf:about=""><dc:format>image/svg+xml</dc:format><dc:type
           rdf:resource="http://purl.org/dc/dcmitype/StillImage" /><dc:title /></cc:Work></rdf:RDF></metadata><defs
     id="defs6"><clipPath
       clipPathUnits="userSpaceOnUse"
       id="clipPath16"><path
         d="m 26.362,779.958 171.44,0 0,35.003 -171.44,0 0,-35.003 z"
         id="path18"
         inkscape:connector-curvature="0" /></clipPath><clipPath
       clipPathUnits="userSpaceOnUse"
       id="clipPath176"><path
         d="m 14.333,137.64 566.61,0 0,566.61 -566.61,0 0,-566.61 z"
         id="path178"
         inkscape:connector-curvature="0" /></clipPath><clipPath
       clipPathUnits="userSpaceOnUse"
       id="clipPath188"><path
         d="m 0,0 595.276,0 0,841.89 L 0,841.89 0,0 Z"
         id="path190"
         inkscape:connector-curvature="0" /></clipPath><clipPath
       clipPathUnits="userSpaceOnUse"
       id="clipPath196"><path
         d="m 197.307,557.283 229.84,0 0,-93.732 -229.84,0 0,93.732 z"
         id="path198"
         inkscape:connector-curvature="0" /></clipPath><clipPath
       clipPathUnits="userSpaceOnUse"
       id="clipPath200"><path
         d="m 198.307,464.551 227.84,0 0,91.732 -227.84,0 0,-91.732 z"
         id="path202"
         inkscape:connector-curvature="0" /></clipPath><clipPath
       clipPathUnits="userSpaceOnUse"
       id="clipPath204"><path
         d="m 327.794,558.625 101.623,0 0,-102.182 -101.623,0 0,102.182 z"
         id="path206"
         inkscape:connector-curvature="0" /></clipPath><clipPath
       clipPathUnits="userSpaceOnUse"
       id="clipPath208"><path
         d="m 327.793,464.619 101.624,0 0,94.007 -101.624,0 0,-94.007 z"
         id="path210"
         inkscape:connector-curvature="0" /></clipPath><clipPath
       clipPathUnits="userSpaceOnUse"
       id="clipPath212"><path
         d="m 239.071,557.381 95.855,0 0,-93.584 -95.855,0 0,93.584 z"
         id="path214"
         inkscape:connector-curvature="0" /></clipPath><clipPath
       clipPathUnits="userSpaceOnUse"
       id="clipPath216"><path
         d="m 239.071,464.551 95.856,0 0,92.83 -95.856,0 0,-92.83 z"
         id="path218"
         inkscape:connector-curvature="0" /></clipPath><clipPath
       clipPathUnits="userSpaceOnUse"
       id="clipPath220"><path
         d="m 287.492,563 82.355,0 0,-119.651 -82.355,0 0,119.651 z"
         id="path222"
         inkscape:connector-curvature="0" /></clipPath><clipPath
       clipPathUnits="userSpaceOnUse"
       id="clipPath224"><path
         d="m 287.492,464.656 82.354,0 0,98.344 -82.354,0 0,-98.344 z"
         id="path226"
         inkscape:connector-curvature="0" /></clipPath><clipPath
       clipPathUnits="userSpaceOnUse"
       id="clipPath228"><path
         d="m 218.761,564.617 88.617,0 0,-212.208 -88.617,0 0,212.208 z"
         id="path230"
         inkscape:connector-curvature="0" /></clipPath><clipPath
       clipPathUnits="userSpaceOnUse"
       id="clipPath232"><path
         d="m 223.365,464.576 84.013,0 0,100.041 -84.013,0 0,-100.041 z"
         id="path234"
         inkscape:connector-curvature="0" /></clipPath><clipPath
       clipPathUnits="userSpaceOnUse"
       id="clipPath236"><path
         d="m 179.583,560.243 105.17,0 0,-101.124 -105.17,0 0,101.124 z"
         id="path238"
         inkscape:connector-curvature="0" /></clipPath><clipPath
       clipPathUnits="userSpaceOnUse"
       id="clipPath240"><path
         d="m 179.582,464.713 105.17,0 0,95.53 -105.17,0 0,-95.53 z"
         id="path242"
         inkscape:connector-curvature="0" /></clipPath><linearGradient
       x1="0"
       y1="0"
       x2="1"
       y2="0"
       gradientUnits="userSpaceOnUse"
       gradientTransform="matrix(0,-50.336905,-50.336905,0,365.75611,445.51142)"
       spreadMethod="pad"
       id="linearGradient366"><stop
         style="stop-opacity:1;stop-color:#ee9cb8"
         offset="0"
         id="stop368" /><stop
         style="stop-opacity:1;stop-color:#cc0b49"
         offset="0.699387"
         id="stop370" /><stop
         style="stop-opacity:1;stop-color:#b20f3e"
         offset="1"
         id="stop372" /></linearGradient><clipPath
       clipPathUnits="userSpaceOnUse"
       id="clipPath380"><path
         d="m 136.226,395.175 322.825,0 0,50.336 -322.825,0 0,-50.336 z"
         id="path382"
         inkscape:connector-curvature="0" /></clipPath><linearGradient
       x1="0"
       y1="0"
       x2="1"
       y2="0"
       gradientUnits="userSpaceOnUse"
       gradientTransform="matrix(0,-50.336905,-50.336905,0,433.88167,445.51142)"
       spreadMethod="pad"
       id="linearGradient408"><stop
         style="stop-opacity:1;stop-color:#f4dc86"
         offset="0"
         id="stop410" /><stop
         style="stop-opacity:1;stop-color:#ecc100"
         offset="0.564423"
         id="stop412" /><stop
         style="stop-opacity:1;stop-color:#c78f00"
         offset="1"
         id="stop414" /></linearGradient><clipPath
       clipPathUnits="userSpaceOnUse"
       id="clipPath422"><path
         d="m 136.226,395.175 322.825,0 0,50.336 -322.825,0 0,-50.336 z"
         id="path424"
         inkscape:connector-curvature="0" /></clipPath><linearGradient
       x1="0"
       y1="0"
       x2="1"
       y2="0"
       gradientUnits="userSpaceOnUse"
       gradientTransform="matrix(0,-50.336905,-50.336905,0,229.51651,445.51142)"
       spreadMethod="pad"
       id="linearGradient446"><stop
         style="stop-opacity:1;stop-color:#91bbe3"
         offset="0"
         id="stop448" /><stop
         style="stop-opacity:1;stop-color:#00519f"
         offset="0.760742"
         id="stop450" /><stop
         style="stop-opacity:1;stop-color:#004586"
         offset="1"
         id="stop452" /></linearGradient><clipPath
       clipPathUnits="userSpaceOnUse"
       id="clipPath460"><path
         d="m 136.226,395.175 322.825,0 0,50.336 -322.825,0 0,-50.336 z"
         id="path462"
         inkscape:connector-curvature="0" /></clipPath><linearGradient
       x1="0"
       y1="0"
       x2="1"
       y2="0"
       gradientUnits="userSpaceOnUse"
       gradientTransform="matrix(0,-50.336905,-50.336905,0,297.63369,445.51142)"
       spreadMethod="pad"
       id="linearGradient484"><stop
         style="stop-opacity:1;stop-color:#c7b8d9"
         offset="0"
         id="stop486" /><stop
         style="stop-opacity:1;stop-color:#892084"
         offset="0.791412"
         id="stop488" /><stop
         style="stop-opacity:1;stop-color:#781977"
         offset="1"
         id="stop490" /></linearGradient><clipPath
       clipPathUnits="userSpaceOnUse"
       id="clipPath498"><path
         d="m 136.226,395.175 322.825,0 0,50.336 -322.825,0 0,-50.336 z"
         id="path500"
         inkscape:connector-curvature="0" /></clipPath><linearGradient
       x1="0"
       y1="0"
       x2="1"
       y2="0"
       gradientUnits="userSpaceOnUse"
       gradientTransform="matrix(0,-50.336905,-50.336905,0,161.39356,445.51142)"
       spreadMethod="pad"
       id="linearGradient522"><stop
         style="stop-opacity:1;stop-color:#badbb3"
         offset="0"
         id="stop524" /><stop
         style="stop-opacity:1;stop-color:#00844a"
         offset="0.736191"
         id="stop526" /><stop
         style="stop-opacity:1;stop-color:#007542"
         offset="1"
         id="stop528" /></linearGradient><clipPath
       clipPathUnits="userSpaceOnUse"
       id="clipPath536"><path
         d="m 136.226,395.175 322.825,0 0,50.336 -322.825,0 0,-50.336 z"
         id="path538"
         inkscape:connector-curvature="0" /></clipPath></defs><sodipodi:namedview
     pagecolor="#ffffff"
     bordercolor="#666666"
     borderopacity="1"
     objecttolerance="10"
     gridtolerance="10"
     guidetolerance="10"
     inkscape:pageopacity="0"
     inkscape:pageshadow="2"
     inkscape:window-width="1920"
     inkscape:window-height="1017"
     id="namedview4"
     showgrid="false"
     fit-margin-top="1"
     fit-margin-left="1"
     fit-margin-right="1"
     fit-margin-bottom="1"
     inkscape:zoom="0.31714773"
     inkscape:cx="88.443868"
     inkscape:cy="370.74208"
     inkscape:window-x="-8"
     inkscape:window-y="-8"
     inkscape:window-maximized="1"
     inkscape:current-layer="g10" /><g
     id="g10"
     inkscape:groupmode="layer"
     inkscape:label="ar_2016"
     transform="matrix(1.25,0,0,-1.25,-31.95275,1019.6879)"><g
       id="g12"><g
         id="g14"
         clip-path="url(#clipPath16)"><g
           id="g20"
           transform="translate(195.182,796.6573)"><path
             d="m 0,0 0,0.878 0.822,0 c 0.116,0 0.21,-0.016 0.277,-0.051 C 1.231,0.76 1.295,0.637 1.295,0.45 1.295,0.279 1.249,0.162 1.156,0.096 1.064,0.031 0.938,0 0.782,0 L 0,0 Z m -0.354,-1.402 0.354,0 0,1.111 0.774,0 c 0.132,0 0.234,-0.017 0.301,-0.048 0.111,-0.059 0.173,-0.172 0.18,-0.342 l 0.02,-0.43 C 1.279,-1.213 1.286,-1.28 1.293,-1.318 1.301,-1.353 1.31,-1.381 1.319,-1.402 l 0.434,0 0,0.057 c -0.057,0.024 -0.096,0.079 -0.115,0.157 -0.01,0.05 -0.019,0.12 -0.021,0.221 l -0.02,0.346 c -0.007,0.151 -0.032,0.26 -0.081,0.33 -0.053,0.064 -0.13,0.119 -0.228,0.16 0.114,0.058 0.206,0.138 0.267,0.238 0.07,0.098 0.098,0.225 0.098,0.379 0,0.299 -0.12,0.501 -0.356,0.612 C 1.172,1.156 1.011,1.182 0.818,1.182 l -1.172,0 0,-2.584"
             style="fill:#004898;fill-opacity:1;fill-rule:nonzero;stroke:none"
             id="path22"
             inkscape:connector-curvature="0" /></g><g
           id="g24"
           transform="translate(107.1445,794.6334)"><path
             d="M 0,0 16.234,0"
             style="fill:#004898;fill-opacity:1;fill-rule:nonzero;stroke:none"
             id="path26"
             inkscape:connector-curvature="0" /></g><path
           d="m 145.292,814.948 5.075,0 0,-20.309 -5.075,0 0,20.309 z"
           style="fill:#004898;fill-opacity:1;fill-rule:nonzero;stroke:none"
           id="path28"
           inkscape:connector-curvature="0" /><g
           id="g30"
           transform="translate(112.2127,814.9482)"><path
             d="m 0,0 -5.067,0 -10e-4,-20.315 16.234,0 0,4.477 L 0,-15.838 0,0 Z"
             style="fill:#004898;fill-opacity:1;fill-rule:nonzero;stroke:none"
             id="path32"
             inkscape:connector-curvature="0" /></g><g
           id="g34"
           transform="translate(88.4246,814.9482)"><path
             d="m 0,0 -19.95,-20.309 5.393,0 L 5.394,0 0,0 Z"
             style="fill:#004898;fill-opacity:1;fill-rule:nonzero;stroke:none"
             id="path36"
             inkscape:connector-curvature="0" /></g><g
           id="g38"
           transform="translate(77.8992,814.9482)"><path
             d="m 0,0 -19.95,-20.309 5.395,0 L 5.396,0 0,0 Z"
             style="fill:#004898;fill-opacity:1;fill-rule:nonzero;stroke:none"
             id="path40"
             inkscape:connector-curvature="0" /></g><g
           id="g42"
           transform="translate(67.3758,814.9482)"><path
             d="m 0,0 -19.951,-20.309 5.396,0 L 5.396,0 0,0 Z"
             style="fill:#004898;fill-opacity:1;fill-rule:nonzero;stroke:none"
             id="path44"
             inkscape:connector-curvature="0" /></g><g
           id="g46"
           transform="translate(56.8504,814.9482)"><path
             d="m 0,0 -19.949,-20.309 5.396,0 L 5.395,0 0,0 Z"
             style="fill:#004898;fill-opacity:1;fill-rule:nonzero;stroke:none"
             id="path48"
             inkscape:connector-curvature="0" /></g><g
           id="g50"
           transform="translate(46.3252,814.9482)"><path
             d="m 0,0 -19.963,-20.309 5.409,0 L 5.397,0 0,0 Z"
             style="fill:#004898;fill-opacity:1;fill-rule:nonzero;stroke:none"
             id="path52"
             inkscape:connector-curvature="0" /></g><g
           id="g54"
           transform="translate(192.6676,810.6886)"><path
             d="m 0,0 0,4.26 -12.165,0 c -1.944,0.012 -2.616,-0.111 -3.771,-0.543 -1.242,-0.445 -2.159,-1.365 -2.578,-2.557 -0.361,-0.865 -0.558,-1.811 -0.558,-3.811 l 0,-13.4 19.072,0 0,4.477 -13.996,0 0,3.855 12.173,0 0,4.061 -12.173,0 0,3.658 L 0,0"
             style="fill:#004898;fill-opacity:1;fill-rule:nonzero;stroke:none"
             id="path56"
             inkscape:connector-curvature="0" /></g><g
           id="g58"
           transform="translate(101.032,814.8223)"><path
             d="m 0,0 c -1.014,-0.199 -2.429,-0.672 -3.895,-2.151 -2.194,-2.206 -1.897,-1.99 -17.701,-18.032 l 6.528,0 14.783,14.867 0.007,-14.867 5.076,0 0,20.309 -3.524,0.002 C 1.274,0.128 0.63,0.119 0,0"
             style="fill:#004898;fill-opacity:1;fill-rule:nonzero;stroke:none"
             id="path60"
             inkscape:connector-curvature="0" /></g><g
           id="g62"
           transform="translate(167.5081,801.7167)"><path
             d="m 0,0 c 0,0 -5.125,6.55 -6.999,9.012 -1.162,1.516 -2.745,4.198 -6.832,4.198 -0.697,0.023 -1.187,0.023 -2.097,0.022 l 0,-20.31 4.886,0 0,13.382 10.297,-13.385 1.258,0 0,0.003 4.372,0 0,20.31 L 0,13.232 0,0"
             style="fill:#004898;fill-opacity:1;fill-rule:nonzero;stroke:none"
             id="path64"
             inkscape:connector-curvature="0" /></g><g
           id="g66"
           transform="translate(137.6876,814.9486)"><path
             d="m 0,0 -13.287,0 0,-20.31 5.146,0 0,6.742 8.141,0 c 4.477,0.045 6.595,1.879 6.595,5.541 l 0,2.638 C 6.595,-1.953 4.477,-0.035 0,0 m 1.915,-7.537 c -0.021,-0.617 -0.111,-1.62 -2.29,-1.626 l -7.77,0.003 0,4.701 7.765,-0.001 c 2.176,-0.018 2.274,-0.983 2.295,-1.624 l 0,-1.453"
             style="fill:#004898;fill-opacity:1;fill-rule:nonzero;stroke:none"
             id="path68"
             inkscape:connector-curvature="0" /></g><g
           id="g70"
           transform="translate(193.8699,796.5607)"><path
             d="m 0,0 c 0,-1.086 0.883,-1.954 1.969,-1.954 1.085,0 1.963,0.868 1.963,1.954 0,1.084 -0.878,1.963 -1.963,1.963 C 0.883,1.963 0,1.084 0,0 m 0.103,0 c 0,1.027 0.836,1.862 1.866,1.862 1.025,0 1.86,-0.835 1.86,-1.862 0,-1.027 -0.835,-1.852 -1.86,-1.852 -1.03,0 -1.866,0.825 -1.866,1.852"
             style="fill:#004898;fill-opacity:1;fill-rule:nonzero;stroke:none"
             id="path72"
             inkscape:connector-curvature="0" /></g><g
           id="g74"
           transform="translate(48.5875,788.3257)"><path
             d="m 0,0 0,-5.179 1.264,0 c 0.891,0 1.397,0.561 1.397,1.396 l 0,2.386 C 2.661,-0.561 2.155,0 1.264,0 L 0,0 Z m 3.793,-1.397 0,-2.386 c 0,-1.484 -0.967,-2.419 -2.529,-2.419 l -2.397,0 0,7.225 2.397,0 c 1.562,0 2.529,-0.935 2.529,-2.42"
             style="fill:#000000;fill-opacity:1;fill-rule:nonzero;stroke:none"
             id="path76"
             inkscape:connector-curvature="0" /></g><g
           id="g78"
           transform="translate(53.3596,782.124)"><path
             d="m 0,0 0,5.377 0.913,0 0.11,-0.638 c 0.275,0.44 0.736,0.748 1.33,0.748 0.088,0 0.198,0 0.297,-0.033 l 0,-1.034 C 2.529,4.442 2.386,4.464 2.254,4.464 1.605,4.464 1.1,4.068 1.1,3.332 L 1.1,0 0,0 Z"
             style="fill:#000000;fill-opacity:1;fill-rule:nonzero;stroke:none"
             id="path80"
             inkscape:connector-curvature="0" /></g><path
           d="m 57.78,782.124 -1.1,0 0,5.377 1.1,0 0,-5.377 z m -0.55,7.521 c 0.363,0 0.649,-0.286 0.649,-0.649 0,-0.373 -0.286,-0.648 -0.649,-0.648 -0.363,0 -0.649,0.275 -0.649,0.648 0,0.363 0.286,0.649 0.649,0.649"
           style="fill:#000000;fill-opacity:1;fill-rule:nonzero;stroke:none"
           id="path82"
           inkscape:connector-curvature="0" /><g
           id="g84"
           transform="translate(60.2097,782.124)"><path
             d="m 0,0 -1.759,5.377 1.176,0 1.177,-3.948 1.165,3.948 1.122,0 L 1.11,0 0,0 Z"
             style="fill:#000000;fill-opacity:1;fill-rule:nonzero;stroke:none"
             id="path86"
             inkscape:connector-curvature="0" /></g><path
           d="m 64.861,782.124 -1.1,0 0,5.377 1.1,0 0,-5.377 z m -0.55,7.521 c 0.363,0 0.649,-0.286 0.649,-0.649 0,-0.373 -0.286,-0.648 -0.649,-0.648 -0.363,0 -0.649,0.275 -0.649,0.648 0,0.363 0.286,0.649 0.649,0.649"
           style="fill:#000000;fill-opacity:1;fill-rule:nonzero;stroke:none"
           id="path88"
           inkscape:connector-curvature="0" /><g
           id="g90"
           transform="translate(65.9272,782.124)"><path
             d="m 0,0 0,5.377 0.913,0 0.099,-0.572 c 0.308,0.418 0.791,0.682 1.407,0.682 1.199,0 1.814,-0.803 1.814,-1.979 l 0,-3.508 -1.088,0 0,3.464 C 3.145,4.068 2.804,4.53 2.144,4.53 1.495,4.53 1.1,4.046 1.1,3.42 L 1.1,0 0,0 Z"
             style="fill:#000000;fill-opacity:1;fill-rule:nonzero;stroke:none"
             id="path92"
             inkscape:connector-curvature="0" /></g><g
           id="g94"
           transform="translate(74.2177,784.2901)"><path
             d="m 0,0 0,1.254 c 0,0.626 -0.407,1.11 -1.056,1.11 -0.648,0 -0.989,-0.462 -0.989,-1.066 l 0,-1.342 c 0,-0.605 0.341,-1.066 0.989,-1.066 C -0.407,-1.11 0,-0.627 0,0 m -3.145,1.276 c 0,1.22 0.649,2.045 1.847,2.045 0.605,0 1.078,-0.253 1.375,-0.66 l 0.11,0.55 0.902,0 0,-5.608 c 0,-1.21 -0.847,-1.935 -2.09,-1.935 -1.231,0 -2.067,0.671 -2.067,1.682 l 0,0.033 1.056,0 0,-0.088 c 0,-0.418 0.33,-0.747 1,-0.747 0.671,0 1.012,0.406 1.012,1.011 l 0,0.935 c -0.297,-0.352 -0.748,-0.561 -1.298,-0.561 -1.198,0 -1.847,0.825 -1.847,2.045 l 0,1.298 z"
             style="fill:#000000;fill-opacity:1;fill-rule:nonzero;stroke:none"
             id="path96"
             inkscape:connector-curvature="0" /></g><g
           id="g98"
           transform="translate(80.0123,787.0831)"><path
             d="m 0,0 0,-4.959 -1.045,0 0,7.224 0.979,0 1.792,-3.42 1.782,3.42 0.978,0 0,-7.224 -1.099,0 0,4.937 -1.342,-2.562 -0.671,0 L 0,0 Z"
             style="fill:#000000;fill-opacity:1;fill-rule:nonzero;stroke:none"
             id="path100"
             inkscape:connector-curvature="0" /></g><g
           id="g102"
           transform="translate(86.3347,784.0593)"><path
             d="m 0,0 c 0,-0.638 0.374,-1.11 1.034,-1.11 0.659,0 1.033,0.472 1.033,1.11 l 0,1.506 C 2.067,2.144 1.693,2.617 1.034,2.617 0.374,2.617 0,2.144 0,1.506 L 0,0 Z m 3.167,0.088 c 0,-1.309 -0.869,-2.133 -2.133,-2.133 -1.265,0 -2.134,0.824 -2.134,2.133 l 0,1.331 c 0,1.308 0.869,2.133 2.134,2.133 1.264,0 2.133,-0.825 2.133,-2.133 l 0,-1.331 z"
             style="fill:#000000;fill-opacity:1;fill-rule:nonzero;stroke:none"
             id="path104"
             inkscape:connector-curvature="0" /></g><g
           id="g106"
           transform="translate(93.3607,784.0374)"><path
             d="m 0,0 0,1.55 c 0,0.605 -0.341,1.067 -1.001,1.067 -0.648,0 -1.044,-0.484 -1.044,-1.111 l 0,-1.451 c 0,-0.638 0.396,-1.122 1.044,-1.122 C -0.341,-1.067 0,-0.605 0,0 m -2.232,-1.913 -0.913,0 0,7.444 1.1,0 0,-2.529 c 0.286,0.352 0.737,0.572 1.297,0.572 1.188,0 1.837,-0.825 1.837,-2.046 l 0,-1.506 c 0,-1.221 -0.649,-2.045 -1.837,-2.045 -0.616,0 -1.088,0.252 -1.385,0.67 l -0.099,-0.56 z"
             style="fill:#000000;fill-opacity:1;fill-rule:nonzero;stroke:none"
             id="path108"
             inkscape:connector-curvature="0" /></g><path
           d="m 96.45,782.124 -1.1,0 0,5.377 1.1,0 0,-5.377 z m -0.549,7.521 c 0.362,0 0.648,-0.286 0.648,-0.649 0,-0.373 -0.286,-0.648 -0.648,-0.648 -0.363,0 -0.649,0.275 -0.649,0.648 0,0.363 0.286,0.649 0.649,0.649"
           style="fill:#000000;fill-opacity:1;fill-rule:nonzero;stroke:none"
           id="path110"
           inkscape:connector-curvature="0" /><path
           d="m 98.693,782.124 -1.089,0 0,7.444 1.089,0 0,-7.444 z"
           style="fill:#000000;fill-opacity:1;fill-rule:nonzero;stroke:none"
           id="path112"
           inkscape:connector-curvature="0" /><g
           id="g114"
           transform="translate(100.7386,785.4119)"><path
             d="m 0,0 2.056,0 0,0.198 C 2.056,0.836 1.682,1.319 1.034,1.319 0.374,1.319 0,0.836 0,0.198 L 0,0 Z m 3.101,-1.451 0,-0.066 c 0,-1.155 -0.847,-1.881 -2.067,-1.881 -1.254,0 -2.112,0.803 -2.112,2.078 l 0,1.386 c 0,1.308 0.858,2.133 2.112,2.133 1.22,0 2.067,-0.825 2.067,-2.133 l 0,-0.847 -3.101,0 0,-0.649 c 0,-0.615 0.385,-1.088 1.045,-1.088 0.659,0 1.011,0.418 1.011,0.978 l 0,0.089 1.045,0 z"
             style="fill:#000000;fill-opacity:1;fill-rule:nonzero;stroke:none"
             id="path116"
             inkscape:connector-curvature="0" /></g><g
           id="g118"
           transform="translate(108.3803,787.0831)"><path
             d="m 0,0 0,-4.959 -1.045,0 0,7.224 0.979,0 1.792,-3.42 1.782,3.42 0.978,0 0,-7.224 -1.099,0 0,4.937 -1.342,-2.562 -0.671,0 L 0,0 Z"
             style="fill:#000000;fill-opacity:1;fill-rule:nonzero;stroke:none"
             id="path120"
             inkscape:connector-curvature="0" /></g><g
           id="g122"
           transform="translate(114.9007,785.4119)"><path
             d="m 0,0 2.056,0 0,0.198 C 2.056,0.836 1.682,1.319 1.034,1.319 0.374,1.319 0,0.836 0,0.198 L 0,0 Z m 3.101,-1.451 0,-0.066 c 0,-1.155 -0.847,-1.881 -2.067,-1.881 -1.254,0 -2.112,0.803 -2.112,2.078 l 0,1.386 c 0,1.308 0.858,2.133 2.112,2.133 1.22,0 2.067,-0.825 2.067,-2.133 l 0,-0.847 -3.101,0 0,-0.649 c 0,-0.615 0.385,-1.088 1.044,-1.088 0.66,0 1.012,0.418 1.012,0.978 l 0,0.089 1.045,0 z"
             style="fill:#000000;fill-opacity:1;fill-rule:nonzero;stroke:none"
             id="path124"
             inkscape:connector-curvature="0" /></g><g
           id="g126"
           transform="translate(121.9378,784.0923)"><path
             d="m 0,0 0,1.451 c 0,0.627 -0.407,1.111 -1.056,1.111 -0.648,0 -0.989,-0.462 -0.989,-1.066 l 0,-1.551 c 0,-0.605 0.341,-1.067 0.989,-1.067 C -0.407,-1.122 0,-0.638 0,0 m 0.077,-1.408 c -0.297,-0.417 -0.77,-0.67 -1.375,-0.67 -1.198,0 -1.847,0.825 -1.847,2.045 l 0,1.506 c 0,1.221 0.649,2.046 1.847,2.046 0.55,0 1.001,-0.22 1.298,-0.572 l 0,2.529 1.089,0 0,-7.444 -0.902,0 -0.11,0.56 z"
             style="fill:#000000;fill-opacity:1;fill-rule:nonzero;stroke:none"
             id="path128"
             inkscape:connector-curvature="0" /></g><path
           d="m 125.247,782.124 -1.1,0 0,5.377 1.1,0 0,-5.377 z m -0.549,7.521 c 0.362,0 0.648,-0.286 0.648,-0.649 0,-0.373 -0.286,-0.648 -0.648,-0.648 -0.363,0 -0.649,0.275 -0.649,0.648 0,0.363 0.286,0.649 0.649,0.649"
           style="fill:#000000;fill-opacity:1;fill-rule:nonzero;stroke:none"
           id="path130"
           inkscape:connector-curvature="0" /><g
           id="g132"
           transform="translate(129.3486,784.0923)"><path
             d="m 0,0 0,1.451 c 0,0.627 -0.407,1.111 -1.056,1.111 -0.648,0 -0.989,-0.462 -0.989,-1.066 l 0,-1.551 c 0,-0.605 0.341,-1.067 0.989,-1.067 C -0.407,-1.122 0,-0.638 0,0 m -3.145,1.473 c 0,1.221 0.649,2.046 1.847,2.046 0.605,0 1.078,-0.253 1.375,-0.66 l 0.11,0.55 0.902,0 0,-5.377 -0.902,0 -0.11,0.56 c -0.297,-0.417 -0.77,-0.67 -1.375,-0.67 -1.198,0 -1.847,0.825 -1.847,2.045 l 0,1.506 z"
             style="fill:#000000;fill-opacity:1;fill-rule:nonzero;stroke:none"
             id="path134"
             inkscape:connector-curvature="0" /></g><path
           d="m 135.231,782.124 -1.132,0 0,7.224 1.132,0 0,-7.224 z"
           style="fill:#000000;fill-opacity:1;fill-rule:nonzero;stroke:none"
           id="path136"
           inkscape:connector-curvature="0" /><g
           id="g138"
           transform="translate(136.2536,782.124)"><path
             d="m 0,0 0,5.377 0.913,0 0.099,-0.572 c 0.308,0.418 0.791,0.682 1.407,0.682 1.199,0 1.815,-0.803 1.815,-1.979 l 0,-3.508 -1.089,0 0,3.464 C 3.145,4.068 2.804,4.53 2.144,4.53 1.496,4.53 1.1,4.046 1.1,3.42 L 1.1,0 0,0 Z"
             style="fill:#000000;fill-opacity:1;fill-rule:nonzero;stroke:none"
             id="path140"
             inkscape:connector-curvature="0" /></g><g
           id="g142"
           transform="translate(141.5092,782.124)"><path
             d="m 0,0 0,5.377 0.913,0 0.099,-0.572 c 0.308,0.418 0.791,0.682 1.407,0.682 1.199,0 1.815,-0.803 1.815,-1.979 l 0,-3.508 -1.089,0 0,3.464 C 3.145,4.068 2.804,4.53 2.144,4.53 1.496,4.53 1.1,4.046 1.1,3.42 L 1.1,0 0,0 Z"
             style="fill:#000000;fill-opacity:1;fill-rule:nonzero;stroke:none"
             id="path144"
             inkscape:connector-curvature="0" /></g><g
           id="g146"
           transform="translate(147.6775,784.0593)"><path
             d="m 0,0 c 0,-0.638 0.374,-1.11 1.034,-1.11 0.659,0 1.033,0.472 1.033,1.11 l 0,1.506 C 2.067,2.144 1.693,2.617 1.034,2.617 0.374,2.617 0,2.144 0,1.506 L 0,0 Z m 3.167,0.088 c 0,-1.309 -0.869,-2.133 -2.133,-2.133 -1.265,0 -2.134,0.824 -2.134,2.133 l 0,1.331 c 0,1.308 0.869,2.133 2.134,2.133 1.264,0 2.133,-0.825 2.133,-2.133 l 0,-1.331 z"
             style="fill:#000000;fill-opacity:1;fill-rule:nonzero;stroke:none"
             id="path148"
             inkscape:connector-curvature="0" /></g><g
           id="g150"
           transform="translate(152.9774,782.124)"><path
             d="m 0,0 -1.759,5.377 1.176,0 1.177,-3.948 1.165,3.948 1.122,0 L 1.11,0 0,0 Z"
             style="fill:#000000;fill-opacity:1;fill-rule:nonzero;stroke:none"
             id="path152"
             inkscape:connector-curvature="0" /></g><g
           id="g154"
           transform="translate(159.3988,784.0923)"><path
             d="m 0,0 0,1.451 c 0,0.627 -0.407,1.111 -1.056,1.111 -0.648,0 -0.989,-0.462 -0.989,-1.066 l 0,-1.551 c 0,-0.605 0.341,-1.067 0.989,-1.067 C -0.407,-1.122 0,-0.638 0,0 m -3.145,1.473 c 0,1.221 0.649,2.046 1.847,2.046 0.605,0 1.078,-0.253 1.375,-0.66 l 0.11,0.55 0.902,0 0,-5.377 -0.902,0 -0.11,0.56 c -0.297,-0.417 -0.77,-0.67 -1.375,-0.67 -1.198,0 -1.847,0.825 -1.847,2.045 l 0,1.506 z"
             style="fill:#000000;fill-opacity:1;fill-rule:nonzero;stroke:none"
             id="path156"
             inkscape:connector-curvature="0" /></g><g
           id="g158"
           transform="translate(161.1577,787.4568)"><path
             d="m 0,0 0.957,0 0,1.474 1.088,0 0,-1.474 0.968,0 0,-0.913 -0.968,0 0,-4.42 -1.088,0 0,4.42 L 0,-0.913 0,0 Z"
             style="fill:#000000;fill-opacity:1;fill-rule:nonzero;stroke:none"
             id="path160"
             inkscape:connector-curvature="0" /></g><path
           d="m 165.996,782.124 -1.1,0 0,5.377 1.1,0 0,-5.377 z m -0.55,7.521 c 0.363,0 0.649,-0.286 0.649,-0.649 0,-0.373 -0.286,-0.648 -0.649,-0.648 -0.363,0 -0.649,0.275 -0.649,0.648 0,0.363 0.286,0.649 0.649,0.649"
           style="fill:#000000;fill-opacity:1;fill-rule:nonzero;stroke:none"
           id="path162"
           inkscape:connector-curvature="0" /><g
           id="g164"
           transform="translate(167.9748,784.0593)"><path
             d="m 0,0 c 0,-0.638 0.374,-1.11 1.034,-1.11 0.659,0 1.033,0.472 1.033,1.11 l 0,1.506 C 2.067,2.144 1.693,2.617 1.034,2.617 0.374,2.617 0,2.144 0,1.506 L 0,0 Z m 3.167,0.088 c 0,-1.309 -0.869,-2.133 -2.133,-2.133 -1.265,0 -2.134,0.824 -2.134,2.133 l 0,1.331 c 0,1.308 0.869,2.133 2.134,2.133 1.264,0 2.133,-0.825 2.133,-2.133 l 0,-1.331 z"
             style="fill:#000000;fill-opacity:1;fill-rule:nonzero;stroke:none"
             id="path166"
             inkscape:connector-curvature="0" /></g><g
           id="g168"
           transform="translate(172.0759,782.124)"><path
             d="m 0,0 0,5.377 0.913,0 0.099,-0.572 c 0.308,0.418 0.791,0.682 1.407,0.682 1.199,0 1.815,-0.803 1.815,-1.979 l 0,-3.508 -1.089,0 0,3.464 C 3.145,4.068 2.804,4.53 2.144,4.53 1.496,4.53 1.1,4.046 1.1,3.42 L 1.1,0 0,0 Z"
             style="fill:#000000;fill-opacity:1;fill-rule:nonzero;stroke:none"
             id="path170"
             inkscape:connector-curvature="0" /></g></g></g><g
       id="g172"><g
         id="g174"
         clip-path="url(#clipPath176)"><g
           id="g180"><g
             id="g182"
             transform="matrix(566.61069,0,0,566.61069,14.332459,137.63955)" /></g></g></g></g></svg>