<svg viewBox="0 0 512 512" xmlns="http://www.w3.org/2000/svg" fill-rule="evenodd" clip-rule="evenodd" stroke-linejoin="round" stroke-miterlimit="2"><path d="M293.64 269.591c-7.952.108 1.506 4.093 11.888 5.695a105.704 105.704 0 007.79-6.704c-6.466 1.579-13.043 1.614-19.678 1.01m42.69-10.64c4.732-6.535 8.19-13.694 9.403-21.095-1.063 5.272-3.924 9.831-6.623 14.637-14.864 9.361-1.398-5.557-.008-11.229-15.98 20.12-2.195 12.064-2.772 17.687m15.76-41.003c.96-14.325-2.822-9.797-4.093-4.332 1.48.774 2.657 10.096 4.094 4.332m-88.61-195.76c4.244.762 9.169 1.347 8.48 2.356 4.644-1.013 5.699-1.949-8.48-2.357m8.48 2.36l-3 .62 2.792-.246.208-.373m132.358 198.83c.473 12.86-3.766 19.103-7.583 30.147l-6.877 3.435c-5.622 10.928.547 6.939-3.477 15.63-8.784 7.805-26.651 24.433-32.37 25.946-4.174-.088 2.827-4.921 3.743-6.82-11.752 8.08-9.43 12.119-27.41 17.029l-.523-1.175c-44.345 20.86-105.934-20.478-105.122-76.884-.473 3.585-1.344 2.684-2.33 4.136-2.287-29.023 13.405-58.174 39.867-70.069 25.885-12.819 56.23-7.559 74.77 9.72-10.181-13.343-30.455-27.483-54.48-26.158-23.532.373-45.547 15.326-52.89 31.56-12.06 7.594-13.458 29.266-18.71 33.225-7.067 51.95 13.296 74.388 47.74 100.793 5.419 3.654 1.526 4.209 2.261 6.99-11.444-5.361-21.926-13.452-30.54-23.356 4.567 6.697 9.504 13.205 15.884 18.314-10.793-3.654-25.207-26.146-29.42-27.063 18.607 33.306 75.471 58.412 105.253 45.96-13.782.504-31.283.28-46.767-5.442-6.5-3.346-15.342-10.278-13.763-11.58 40.637 15.188 82.622 11.507 117.78-16.684 8.944-6.97 18.718-18.82 21.54-18.985-4.255 6.396.724 3.08-2.541 8.726 8.918-14.375-3.87-5.857 9.218-24.83l4.837 6.658c-1.798-11.93 14.818-26.42 13.131-45.292 3.812-5.772 4.251 6.207.208 19.489 5.61-14.73 1.479-17.098 2.923-29.255 1.555 4.09 3.6 8.426 4.651 12.739-3.658-14.233 3.755-23.975 5.584-32.243-1.798-.8-5.638 6.292-6.515-10.52.13-7.3 2.033-3.824 2.764-5.622-1.436-.828-5.194-6.423-7.486-17.159 1.66-2.522 4.433 6.539 6.697 6.912-1.456-8.537-3.959-15.045-4.055-21.599-6.596-13.782-2.333 1.841-7.686-5.914-7.02-21.9 5.826-5.083 6.693-15.03 10.64 15.415 16.708 39.309 19.492 49.201-2.126-12.064-5.557-23.751-9.75-35.061 3.23 1.363-5.206-24.822 4.201-7.482-10.046-36.967-42.997-71.505-73.31-87.712 3.704 3.392 8.39 7.659 6.711 8.325-15.075-8.976-12.426-9.677-14.582-13.47-12.284-4.994-13.089.4-21.222.012-23.15-12.277-27.614-10.975-48.916-18.669l.97 4.532c-15.34-5.11-17.87 1.937-34.444.016-1.013-.79 5.31-2.85 10.512-3.608-14.825 1.956-14.132-2.923-28.642.539 3.578-2.507 7.351-4.167 11.167-6.304-12.087.736-28.861 7.04-23.686 1.306-19.72 8.802-54.75 21.152-74.404 39.585l-.62-4.132c-9.007 10.817-39.277 32.297-41.688 46.294l-2.407.562c-4.69 7.933-7.717 16.928-11.436 25.096-6.13 10.447-8.988 4.02-8.114 5.656-12.06 24.449-18.048 44.989-23.22 61.832 3.69 5.514.085 33.17 1.483 55.312-6.054 109.338 76.737 215.496 167.238 240.014 13.265 4.736 32.989 4.559 49.767 5.048-19.797-5.665-22.358-2.996-41.638-9.723-13.917-6.55-16.963-14.032-26.817-22.581l3.905 6.893c-19.327-6.835-11.237-8.464-26.963-13.443l4.17-5.437c-6.265-.474-16.593-10.552-19.415-16.139l-6.85.27c-8.234-10.159-12.62-17.475-12.3-23.147l-2.214 3.943c-2.511-4.31-30.287-38.096-15.877-30.229-2.68-2.452-6.238-3.985-10.097-10.997l2.935-3.354c-6.94-8.919-12.766-20.36-12.323-24.168 3.697 4.999 6.265 5.93 8.807 6.79-17.513-43.456-18.495-2.396-31.761-44.234l2.807-.227c-2.153-3.243-3.458-6.762-5.187-10.213l1.217-12.172c-12.607-14.579-3.527-61.99-1.706-87.993 1.263-10.575 10.524-21.83 17.571-39.478l-4.29-.74c8.206-14.313 46.852-57.484 64.75-55.262 8.669-10.893-1.717-.042-3.411-2.784 19.042-19.712 25.03-13.928 37.884-17.47 13.862-8.23-11.895 3.207-5.326-3.139 23.963-6.119 16.982-13.913 48.242-17.02 3.3 1.875-7.651 2.895-10.4 5.333 19.965-9.766 63.182-7.544 91.25 5.422 32.57 15.218 69.164 60.218 70.608 102.55l1.644.438c-.832 16.828 2.576 36.29-3.33 54.165l4.016-8.476m-197.486 57.13l-1.117 5.576c5.226 7.105 9.377 14.798 16.046 20.343-4.798-9.372-8.367-13.246-14.93-25.919m12.354-.485c-2.765-3.062-4.405-6.743-6.238-10.413 1.756 6.45 5.345 11.992 8.683 17.63l-2.445-7.217m218.665-47.53l-1.17 2.934a141.476 141.476 0 01-13.86 44.234 139.075 139.075 0 0015.03-47.168M265.056 18.376c5.376-1.976 13.22-1.082 18.923-2.376-7.432.624-14.833.997-22.142 1.937l3.22.439M76.264 118.76c1.24 11.471-8.633 15.923 2.184 8.36 5.799-13.054-2.264-3.6-2.184-8.36m-12.71 53.094c2.487-7.647 2.941-12.245 3.892-16.666-6.885 8.8-3.169 10.678-3.893 16.666" fill="#a80030" fill-rule="nonzero"/></svg>