<svg xmlns="http://www.w3.org/2000/svg" width="223.479" height="99.033" viewBox="0 0 223.479 99.033">
  <g id="Artboard" transform="translate(0.06 0.03)">
    <g id="text-center" transform="translate(-0.06 -0.03)">
      <g id="g10" transform="translate(0 0)">
        <g id="g12">
          <g id="Group_2" data-name="Group 2">
            <g id="Group_1" data-name="Group 1" transform="translate(0 78.318)">
              <g id="text22" transform="translate(0 0)">
                <path id="path44" d="M-43.926,1a11.427,11.427,0,0,1,5.485,1.278,8.929,8.929,0,0,1,3.728,3.568,9.888,9.888,0,0,1,1.331,5.219,9.915,9.915,0,0,1-1.385,5.219,9.76,9.76,0,0,1-3.781,3.568,12.012,12.012,0,0,1-5.592,1.278H-52.5V1Zm.107,16.3a5.552,5.552,0,0,0,2.982-.8,5.27,5.27,0,0,0,2.077-2.237,7.121,7.121,0,0,0,.746-3.248,6.527,6.527,0,0,0-.8-3.248A5.519,5.519,0,0,0-41,5.527a5.931,5.931,0,0,0-3.089-.8h-3.941V17.242h4.207Z" transform="translate(52.5 -0.787)" fill="#fff"/>
                <path id="path46" d="M-10.9,1h4.58V21.13H-10.9Z" transform="translate(33.054 -0.787)" fill="#fff"/>
                <path id="path48" d="M18.311,10.825h3.941v7.828a12.928,12.928,0,0,1-3.834,1.917,14.136,14.136,0,0,1-4.314.746,11.151,11.151,0,0,1-5.485-1.331,9.93,9.93,0,0,1-3.834-3.728A10.069,10.069,0,0,1,3.4,10.931,10.055,10.055,0,0,1,4.838,5.659,10.206,10.206,0,0,1,8.779,1.931,11.713,11.713,0,0,1,14.37.6a12.414,12.414,0,0,1,4.367.8,12.286,12.286,0,0,1,3.728,2.183L19.909,6.831A7.783,7.783,0,0,0,17.3,5.18a7.194,7.194,0,0,0-2.929-.586A6.31,6.31,0,0,0,8.832,7.736a6.557,6.557,0,0,0-.852,3.248,6.362,6.362,0,0,0,.852,3.3,6.886,6.886,0,0,0,2.29,2.343,6.711,6.711,0,0,0,3.248.852,8.7,8.7,0,0,0,1.917-.266,9.6,9.6,0,0,0,2.024-.852V10.825Z" transform="translate(26.369 -0.6)" fill="#fff"/>
                <path id="path50" d="M46.3,1h4.527V21.13H46.3Z" transform="translate(6.315 -0.787)" fill="#fff"/>
                <path id="path52" d="M59.5,1H76.328V4.834H70.151v16.3H65.624V4.834H59.5Z" transform="translate(0.144 -0.787)" fill="#fff"/>
                <path id="path54" d="M104.6,21.13,103,17.189H93.684l-1.6,3.941H87.4L96.187,1h4.686L109.5,21.13Zm-9.426-7.562h6.39L98.37,5.74Z" transform="translate(-12.898 -0.787)" fill="#fff"/>
                <path id="path56" d="M132.8,1h4.527V17.189h8.627V21.13H132.8Z" transform="translate(-34.121 -0.787)" fill="#fff"/>
              </g>
              <g id="text26" transform="translate(115.375 0.213)">
                <path id="path59" d="M-51.9,0h2.343V9.106h12.142V0h2.29V20.13h-2.29V11.237H-49.557V20.13H-51.9Z" transform="translate(51.9)" fill="#fff"/>
                <path id="path61" d="M-7.457,11.929a6.039,6.039,0,0,0,1.651,4.58,6.029,6.029,0,0,0,4.473,1.651,5.948,5.948,0,0,0,4.473-1.651,6.248,6.248,0,0,0,1.651-4.633V0h2.29V11.929a8.376,8.376,0,0,1-2.237,6.177,8.293,8.293,0,0,1-6.177,2.237,8.506,8.506,0,0,1-6.231-2.237A8.376,8.376,0,0,1-9.8,11.929V0h2.29V11.929Z" transform="translate(32.22)" fill="#fff"/>
                <path id="path63" d="M41.021,0a7.648,7.648,0,0,1,4.793,1.331,4.4,4.4,0,0,1,1.757,3.675,4.405,4.405,0,0,1-1.012,2.982,4.668,4.668,0,0,1-2.716,1.6,5.456,5.456,0,0,1,3.408,1.651,4.949,4.949,0,0,1,1.225,3.408,4.877,4.877,0,0,1-1.917,4.047A8.845,8.845,0,0,1,41.18,20.13H32.5V0Zm-.107,8.734a4.907,4.907,0,0,0,3.142-.852,2.986,2.986,0,0,0,1.118-2.45,2.884,2.884,0,0,0-1.118-2.4,4.7,4.7,0,0,0-3.142-.905H34.843v6.6Zm0,9.266a6.6,6.6,0,0,0,3.834-.905,3.107,3.107,0,0,0,1.331-2.716A2.968,2.968,0,0,0,44.7,11.769a6.139,6.139,0,0,0-3.781-.905H34.843v7.189h6.071Z" transform="translate(12.446)" fill="#fff"/>
                <path id="path65" d="M69.838,32.7a1.334,1.334,0,0,1,.959.426,1.455,1.455,0,0,1,.426,1.012A1.487,1.487,0,0,1,70.8,35.2a1.334,1.334,0,0,1-.959.426,1.364,1.364,0,0,1-1.012-.426,1.487,1.487,0,0,1-.426-1.065A1.455,1.455,0,0,1,69.838,32.7Z" transform="translate(-4.336 -15.286)" fill="#fff"/>
                <path id="path67" d="M90.048,0A10.487,10.487,0,0,1,95.32,1.331a9.746,9.746,0,0,1,3.728,3.621,10.131,10.131,0,0,1,0,10.225A9.38,9.38,0,0,1,95.32,18.8a10.547,10.547,0,0,1-5.325,1.331H81.9V0Zm0,18a7.882,7.882,0,0,0,6.976-3.888,7.549,7.549,0,0,0,1.065-4.047,7.46,7.46,0,0,0-1.118-4.047,7.6,7.6,0,0,0-2.929-2.876,8.254,8.254,0,0,0-4.1-1.065H84.19v15.87h5.858Z" transform="translate(-10.647)" fill="#fff"/>
                <path id="path69" d="M124.8,0h13.633V2.13H127.09V8.893h10.171V10.97H127.09V18h11.716v2.13H124.8Z" transform="translate(-30.701)" fill="#fff"/>
              </g>
            </g>
            <g id="Group" transform="translate(80.094)">
              <g id="g28" transform="translate(0 13.684)">
                <path id="path30" d="M-.264-48.713-16.879-32.151a1.447,1.447,0,0,1-2.077,0l-7.029-7.029a1.447,1.447,0,0,1,0-2.077l7.242-7.136a1.447,1.447,0,0,0,0-2.077l-7.136-7.136a1.384,1.384,0,0,1,0-2.024l7.242-7.455a1.447,1.447,0,0,1,2.077,0l16.3,16.349a1.481,1.481,0,0,1,0,2.024" transform="translate(26.425 67.525)" fill="#fff"/>
              </g>
              <g id="g32" transform="translate(36.751 13.731)">
                <path id="path34" d="M-.217-41.258l-7.189-7.136a1.447,1.447,0,0,1,0-2.077l7.136-7.136a1.384,1.384,0,0,0,0-2.024l-7.242-7.455a1.447,1.447,0,0,0-2.077,0l-16.3,16.3a1.447,1.447,0,0,0,0,2.077L-9.324-32.2a1.447,1.447,0,0,0,2.077,0l7.029-7.029a1.481,1.481,0,0,0,0-2.024" transform="translate(26.325 67.525)" fill="#fff"/>
              </g>
              <g id="g36" transform="translate(13.341)">
                <path id="path38" d="M-9.271-24.071a1.447,1.447,0,0,0,2.077,0l16.3-16.3a1.447,1.447,0,0,0,0-2.077L1.646-49.686a1.481,1.481,0,0,0-2.024,0L-7.566-42.5a1.447,1.447,0,0,1-2.077,0l-7.136-7.189a1.447,1.447,0,0,0-2.077,0l-7.029,7.029a1.447,1.447,0,0,0,0,2.077Z" transform="translate(26.325 50.125)" fill="#fff"/>
              </g>
              <g id="g40" transform="translate(13.37 36.684)">
                <path id="path42" d="M-7.047-49.586a1.447,1.447,0,0,0-2.077,0L-25.686-33.024a1.447,1.447,0,0,0,0,2.077l7.029,7.029a1.481,1.481,0,0,0,2.024,0l7.189-7.189a1.447,1.447,0,0,1,2.077,0l7.083,7.136a1.384,1.384,0,0,0,2.024,0L9.2-31.213a1.447,1.447,0,0,0,0-2.077Z" transform="translate(26.125 50.025)" fill="#fff"/>
              </g>
            </g>
          </g>
        </g>
      </g>
    </g>
  </g>
</svg>
