<svg xmlns="http://www.w3.org/2000/svg" width="233.615" height="50.512" viewBox="0 0 233.615 50.512">
  <g id="LOGO" transform="translate(-148.828 -114.996)">
    <path id="Path_86" data-name="Path 86" d="M200.407,134.99l-.071-.189L193.2,116.18a1.852,1.852,0,0,0-.734-.886,1.886,1.886,0,0,0-2.832,1.078l-4.819,14.753H165.3l-4.819-14.753a1.889,1.889,0,0,0-2.832-1.078,1.852,1.852,0,0,0-.734.886L149.778,134.8l-.074.185a13.254,13.254,0,0,0,4.4,15.318l.027.02.061.047,10.86,8.139,5.388,4.071,3.273,2.475a2.212,2.212,0,0,0,2.667,0l3.273-2.475,5.388-4.071,10.937-8.186.03-.024A13.254,13.254,0,0,0,200.407,134.99Z" fill="#fff"/>
    <path id="Path_87" data-name="Path 87" d="M372.012,144.257h7.671c-1.28-8.156-8.341-13.837-17.531-13.837-10.873,0-19.033,7.994-19.033,21.383,0,13.15,7.792,21.306,19.255,21.306,10.287,0,17.652-6.617,17.652-17.329v-4.99H363.166v5.883h9.577c-.121,5.927-4.078,9.678-10.328,9.678-6.957,0-11.725-5.213-11.725-14.628,0-9.355,4.849-14.547,11.564-14.547C367.264,137.175,370.692,139.852,372.012,144.257Z" transform="translate(-128.866 -10.23)" fill="#fff"/>
    <path id="Path_88" data-name="Path 88" d="M466.686,168.693h7.344V137.544h-7.344Zm3.7-36.1a4.263,4.263,0,1,0-.013,0Z" transform="translate(-210.453 -6.383)" fill="#fff"/>
    <path id="Path_89" data-name="Path 89" d="M519.615,148.262h-6.149V140.78h-7.344v7.482H501.7v5.681h4.421v17.329c-.04,5.863,4.223,8.755,9.738,8.584a14.914,14.914,0,0,0,4.324-.731l-1.239-5.745a8.947,8.947,0,0,1-2.148.286c-1.849,0-3.33-.65-3.33-3.613V153.926h6.149Z" transform="translate(-234.046 -17.101)" fill="#fff"/>
    <path id="Path_90" data-name="Path 90" d="M571.78,173.654h25.828v-6.311h-18.3V132.1h-7.53Z" transform="translate(-280.527 -11.344)" fill="#fff"/>
    <path id="Path_91" data-name="Path 91" d="M669.758,193.949c4.89,0,7.809-2.293,9.149-4.91h.242v4.28h7.071V172.462c0-8.237-6.715-10.712-12.661-10.712-6.553,0-11.584,2.92-13.207,8.6l6.859.977c.727-2.132,2.8-3.957,6.4-3.957,3.411,0,5.277,1.744,5.277,4.809v.121c0,2.108-2.212,2.212-7.711,2.8-6.045.65-11.826,2.455-11.826,9.476C659.33,190.7,663.812,193.949,669.758,193.949Zm2.414-5.388c-3.064,0-5.257-1.4-5.257-4.1,0-2.822,2.455-4,5.725-4.465,1.93-.263,5.785-.751,6.735-1.519v3.67c.02,3.458-2.781,6.4-7.2,6.4Z" transform="translate(-338.608 -31.01)" fill="#fff"/>
    <path id="Path_92" data-name="Path 92" d="M755.21,173.654h7.223v-4.91h.424a9.4,9.4,0,0,0,8.93,5.459c7.344,0,12.843-5.826,12.843-16.089,0-10.388-5.661-16.029-12.864-16.029a9.25,9.25,0,0,0-8.91,5.56h-.31V132.1H755.21Zm7.2-15.581c0-6.061,2.6-9.964,7.324-9.964,4.889,0,7.408,4.159,7.408,9.964s-2.556,10.1-7.408,10.1c-4.687,0-7.324-4.058-7.324-10.1Z" transform="translate(-402.188 -11.344)" fill="#fff"/>
  </g>
</svg>
