<?xml version="1.0" encoding="utf-8"?>
<!-- Generator: Adobe Illustrator 28.1.0, SVG Export Plug-In . SVG Version: 6.00 Build 0)  -->
<svg version="1.1" id="IKOR-Logo-RGB-w_IKOR_Logo" xmlns="http://www.w3.org/2000/svg" xmlns:xlink="http://www.w3.org/1999/xlink"
	 x="0px" y="0px" viewBox="0 0 203.2 60.1" style="enable-background:new 0 0 203.2 60.1;" xml:space="preserve">
<style type="text/css">
	.st0{fill:none;}
	.st1{fill:#FFFFFF;}
</style>
<g id="SCHUTZRAUM">
	<rect id="Rectangle_3" x="-45.4" y="-43.4" class="st0" width="294" height="147"/>
	<rect id="Rectangle_4" x="-45.4" y="-43.4" class="st0" width="294" height="147"/>
</g>
<g id="IKOR" transform="translate(45.38 43.436)">
	<g id="Group_21">
		<g id="Group_18" transform="translate(0.162)">
			<g id="Group_7">
				<g id="Group_6">
					<g id="Group_5">
						<path id="Path_22" class="st1" d="M72,0.7c-0.8,0.1-1.5-0.3-1.9-1L57.9-18.9h-8.6v17.7c0,1.2-1.1,2.1-2.3,2.1c0,0,0,0,0,0
							c-1.3,0-2.3-1-2.3-2.8V-40c0-1,1.5-2.1,3.2-2.1h11.8c3.6-0.1,7.2,1,10.2,3.1c2.7,2.1,4.2,5.4,4.1,8.8C74.1-27,72.6-24,70-22
							c-2,1.6-4.4,2.5-7,2.8l11,17c0.1,0.2,0.2,0.5,0.2,0.8C74.1-0.3,73.1,0.7,72,0.7z M19.4,1.6c-4.2,0.2-8.2-1.2-11.5-3.7
							C5-4.6,3.4-8.3,3.6-12.1v-17.5c-0.1-3.8,1.5-7.5,4.4-10c3.3-2.6,7.4-3.9,11.5-3.7c4.7,0,8.8,1.3,11.5,3.7
							c2.9,2.5,4.6,6.2,4.5,10v17.5c0,3.9-1.6,7.5-4.5,10C28.2,0.3,24.3,1.6,19.4,1.6z M-3.2,0.7c-0.6,0-1.2-0.2-1.6-0.6l-20.3-17.3
							v15.9c-0.1,1.3-1.2,2.2-2.4,2.1c-1.1-0.1-2-1-2.1-2.1v-38.7c0.1-1.2,1.1-2.1,2.3-2.1c1.2,0,2.2,0.9,2.3,2.1c0,0,0,0,0,0v16.4
							l19.3-17.8c0.5-0.4,1-0.6,1.6-0.6c1.2,0,2.2,0.9,2.3,2.1c0,0,0,0,0,0c0,0.6-0.2,1.1-0.6,1.5l-19.8,18.2L-1.6-2.9
							C-1.2-2.6-0.9-2-1-1.4C-1-0.2-2,0.7-3.2,0.7C-3.2,0.7-3.2,0.7-3.2,0.7z M-43.1,0.7c-1.2,0-2.2-0.9-2.3-2.1c0,0,0,0,0,0v-38.7
							c0.1-1.2,1.1-2.1,2.3-2.1c1.2,0,2.2,0.9,2.3,2.1c0,0,0,0,0,0v38.7C-40.9-0.2-41.9,0.7-43.1,0.7C-43.1,0.7-43.1,0.7-43.1,0.7z
							 M19.4-39.2c-7,0-11.3,3.6-11.3,9.6V-12c0,5.8,4.4,9.6,11.3,9.6c7.1,0,11.3-3.6,11.3-9.6v-17.7C31-35.5,26.6-39.2,19.4-39.2z
							 M49.1-23h10.7c2.6,0.1,5.1-0.5,7.3-1.9c1.6-1.3,2.5-3.3,2.4-5.3c0.1-2.2-0.8-4.3-2.6-5.7c-2.1-1.5-4.6-2.2-7.1-2.1H49.1V-23z
							"/>
					</g>
				</g>
			</g>
			<g id="Group_17" transform="translate(132.413 1.297)">
				<g id="Group_16">
					<g id="Group_9">
						<g id="Group_8">
							<path id="Path_23" class="st1" d="M-16-39.5h-27.4c-1.1,0-1.9-0.9-1.9-1.9c0-1,0.8-1.9,1.8-1.9c0,0,0.1,0,0.1,0H-16
								c1.1,0,1.9,0.9,1.9,1.9C-14.1-40.4-15-39.5-16-39.5z"/>
						</g>
					</g>
					<g id="Group_11" transform="translate(41.166)">
						<g id="Group_10">
							<path id="Path_24" class="st1" d="M-17.8-39.5h-25.6c-1.1,0-1.9-0.9-1.9-1.9c0-1,0.8-1.9,1.8-1.9c0,0,0.1,0,0.1,0h25.6
								c1.1,0,1.9,0.9,1.9,1.9c0,1-0.8,1.9-1.8,1.9C-17.7-39.5-17.8-39.5-17.8-39.5z"/>
						</g>
					</g>
					<g id="Group_13" transform="translate(41.167 19.125)">
						<g id="Group_12">
							<path id="Path_25" class="st1" d="M-28.2-39.5h-15.2c-1.1,0-1.9-0.9-1.9-1.9c0-1,0.8-1.9,1.8-1.9c0,0,0.1,0,0.1,0h15.2
								c1.1,0,1.9,0.9,1.9,1.9c0,1-0.8,1.9-1.8,1.9C-28.1-39.5-28.2-39.5-28.2-39.5z"/>
						</g>
					</g>
					<g id="Group_15" transform="translate(0 38.897)">
						<g id="Group_14">
							<path id="Path_26" class="st1" d="M-16-39.5h-27.4c-1.1,0-1.9-0.9-1.9-1.9c0-1,0.8-1.9,1.8-1.9c0,0,0.1,0,0.1,0H-16
								c1.1,0,1.9,0.9,1.9,1.9C-14.2-40.4-15-39.6-16-39.5z"/>
						</g>
					</g>
				</g>
			</g>
		</g>
		<g id="Group_20" transform="translate(0 52.998)">
			<g id="Ebene_2_00000061459532748311755550000009819765377386445958_" transform="translate(42.949 0.162)">
				<g id="Ebene_1-2_00000113348400890612748690000007254370496671756728_">
					<path id="Path_27" class="st1" d="M-39.5-40c0.3-0.2,0.5-0.5,0.6-0.8c0.1-0.4,0.2-0.7,0.2-1.1v-1.5h-1.8v1.6
						c0,0.2,0,0.5-0.2,0.6c-0.2,0.2-0.2,0.3-0.5,0.3c-0.6,0.2-1.2,0.2-1.8,0c-0.2-0.2-0.3-0.2-0.5-0.3s-0.2-0.3-0.2-0.6v-1.6h-1.8
						v1.5c0,0.4,0.1,0.8,0.3,1.1c0.1,0.3,0.3,0.6,0.6,0.8c-0.3,0.2-0.5,0.5-0.6,0.8c-0.2,0.3-0.3,0.7-0.3,1.1v1.5h1.8v-1.5
						c0-0.2,0-0.5,0.2-0.6c0.2-0.2,0.3-0.3,0.5-0.3c0.6-0.2,1.2-0.2,1.8,0c0.2,0.2,0.3,0.2,0.5,0.3s0.2,0.3,0.2,0.6v1.5h1.8v-1.5
						c0-0.4-0.1-0.8-0.3-1.1C-39.1-39.5-39.3-39.8-39.5-40z"/>
					<path id="Path_28" class="st1" d="M-37.8-42h1.9v5.3h1.8v-6.8h-3.7V-42z"/>
					<path id="Path_29" class="st1" d="M-31.8-43.3c-0.3,0.2-0.6,0.5-0.8,0.8c-0.2,0.3-0.3,0.6-0.3,1v4.7h1.8v-2.4h3.2v-1.5h-3.2
						v-0.8c0-0.2,0-0.3,0.2-0.3c0.1-0.1,0.3-0.2,0.5-0.2h2.9v-1.5h-3.2C-31.1-43.4-31.5-43.4-31.8-43.3z"/>
				</g>
			</g>
			<g id="Group_19">
				<path id="Path_30" class="st1" d="M-42.9-43.3c1.2-0.2,2.3,0.7,2.4,1.8c0,0.1,0,0.2,0,0.3c0.1,1.1-0.8,2.1-1.9,2.1
					c-0.1,0-0.3,0-0.4,0h-1.1v1.9c0,0.4-0.3,0.8-0.7,0.8c0,0-0.1,0-0.1,0c-0.5,0-0.6-0.3-0.6-0.8v-5.3c0-0.4,0.3-0.8,0.7-0.8
					c0,0,0.1,0,0.1,0H-42.9L-42.9-43.3z M-42.9-40.3c0.5,0,1-0.2,1-0.8s-0.3-0.8-1-0.8h-1v1.6L-42.9-40.3z"/>
				<path id="Path_31" class="st1" d="M-34.8-37.4v0.3c0,0.3-0.3,0.6-0.6,0.6c-0.3,0-0.6-0.2-0.6-0.5l-0.3-0.8h-2.1l-0.3,1
					c-0.2,0.3-0.3,0.5-0.6,0.5c-0.3,0-0.6-0.2-0.6-0.5c0,0,0-0.1,0-0.1v-0.3l1.9-5.5c0.2-0.4,0.8-0.6,1.2-0.4
					c0.2,0.1,0.3,0.2,0.4,0.4L-34.8-37.4z M-37.4-41.2l-0.6,2.1h1.3L-37.4-41.2z"/>
				<path id="Path_32" class="st1" d="M-30.8-43.3c1.1-0.1,2.1,0.6,2.3,1.7c0,0.1,0,0.3,0,0.4c0,0.9-0.5,1.7-1.3,1.9l1.1,1.8
					c0,0.2,0.2,0.2,0.2,0.3c0,0.4-0.4,0.8-0.8,0.8c-0.3,0-0.5-0.1-0.6-0.3l-1.6-2.4h-0.5v1.9c0,0.4-0.4,0.8-0.8,0.8
					c-0.4,0-0.8-0.4-0.8-0.8v-5.3c0-0.4,0.3-0.8,0.7-0.8c0,0,0.1,0,0.1,0H-30.8z M-31.9-42v1.5h1.1c0.5,0,0.8-0.2,0.8-0.8
					s-0.3-0.8-0.8-0.8h-1.1L-31.9-42z"/>
				<path id="Path_33" class="st1" d="M-23-43.3c0.4,0,0.6,0.3,0.6,0.7c0,0.4-0.3,0.6-0.6,0.6h-1.3v4.9c0,0.4-0.3,0.8-0.7,0.8
					c0,0-0.1,0-0.1,0c-0.4,0-0.8-0.4-0.8-0.8V-42h-1.3c-0.3,0-0.6-0.2-0.6-0.5c0,0,0-0.1,0-0.1c0-0.3,0.3-0.6,0.6-0.6L-23-43.3z"/>
				<path id="Path_34" class="st1" d="M-13.1-40.8v1.9c0,1.4-1.2,2.6-2.6,2.6c-1.4,0-2.6-1.2-2.6-2.6v-1.9c0-1.4,1.2-2.6,2.6-2.6
					C-14.3-43.4-13.1-42.3-13.1-40.8L-13.1-40.8z M-16.9-41v2.1c0,0.6,0.5,1.1,1.2,1.1c0.6,0,1.1-0.5,1.1-1.1V-41
					c0-0.6-0.5-1.1-1.1-1.2C-16.3-42.2-16.8-41.7-16.9-41C-16.9-41-16.9-41-16.9-41z"/>
				<path id="Path_35" class="st1" d="M-7.8-43.3c0.3,0,0.6,0.2,0.6,0.5c0,0,0,0.1,0,0.1c0,0.3-0.3,0.6-0.6,0.6H-10v1.1h2.1
					c0.3,0,0.6,0.2,0.6,0.5c0,0,0,0.1,0,0.1c0,0.3-0.3,0.6-0.6,0.6H-10v2.3c0,0.4-0.4,0.8-0.8,0.8c-0.4,0-0.8-0.4-0.8-0.8v-5.3
					c0-0.4,0.3-0.8,0.7-0.8c0,0,0.1,0,0.1,0h3.1V-43.3z"/>
			</g>
		</g>
	</g>
</g>
</svg>
