<svg xmlns="http://www.w3.org/2000/svg" width="236.834" height="70.052" viewBox="0 0 236.834 70.052">
  <g id="OWASP_black_logo" transform="translate(-0.069 513.923)">
    <path id="Path_13" data-name="Path 13" d="M31.165-513.783a35.451,35.451,0,0,0-14.857,5.253A34.66,34.66,0,0,0,1.424-488.626a36.259,36.259,0,0,0-.546,17.449,35.422,35.422,0,0,0,17.136,22.961,36.533,36.533,0,0,0,12.333,4.093,47.915,47.915,0,0,0,9.8,0,34.5,34.5,0,0,0,12.661-4.42,34.737,34.737,0,0,0,17.381-30.547,33.94,33.94,0,0,0-5.7-19.018,34.2,34.2,0,0,0-4.6-5.676,34.673,34.673,0,0,0-20.246-9.878A46.687,46.687,0,0,0,31.165-513.783Zm7.8,5.525a29.665,29.665,0,0,1,25.553,25.7,31.6,31.6,0,0,1-.682,11.01,29.751,29.751,0,0,1-15.321,19.059,29.4,29.4,0,0,1-34.858-6.058,29.491,29.491,0,0,1-8.022-17.531,34.737,34.737,0,0,1,.273-7.708,29.683,29.683,0,0,1,9.55-17.231,29.626,29.626,0,0,1,15.785-7.244A37.449,37.449,0,0,1,38.969-508.258Z" transform="translate(0)" fill="#fff"/>
    <path id="Path_14" data-name="Path 14" d="M110.842-414.517a2.811,2.811,0,0,0,.409,1.146,3.064,3.064,0,0,1,.478,1.664c0,.723-.45,2.1-.682,2.1-.055,0-.164-.15-.246-.341a1.466,1.466,0,0,0-2.306-.259,5.741,5.741,0,0,1-1.228,1.228c-.86.723-1.023,1.637-.655,3.424l.1.423-.587-.136a6.025,6.025,0,0,0-1.433-.055l-.832.082-.709-1.078-.723-1.091.164-1.569c.259-2.524-.082-2.756-.464-.314-.287,1.787-.273,2.224.123,3.288.191.5.341.941.341.969a4.39,4.39,0,0,1-1.392-.709,9.474,9.474,0,0,1-.791-1.869c-.587-1.746-.75-2.115-.9-1.965a17.571,17.571,0,0,0,1.037,4.338l.273.4-.382-.123c-.7-.191-1-.409-2.183-1.624s-1.6-1.323-.832-.191a7.026,7.026,0,0,0,3.424,2.892c.832.341,1.187.628.982.832a45.882,45.882,0,0,1-4.693-.682c-7.968-1.392-11.16-1.692-17.122-1.678-4.066.027-6.3.177-6.753.45-.341.2.068.764,1.119,1.542a34.8,34.8,0,0,0,5.334,3.233,16.188,16.188,0,0,0,8.008,1.978c2.21,0,1.8.123,4.652-1.392.914-.477.914-.477,5.034-.887a37.279,37.279,0,0,1,4.243-.286,5.821,5.821,0,0,1,.464.9l.341.791-.3-.109a6.726,6.726,0,0,0-1.337-.109c-1.364,0-2.278.45-4.366,2.156a34.066,34.066,0,0,0-8.486,10.055,65.993,65.993,0,0,0-3.793,7.722c0,.218.655-.068,4.093-1.774,5.785-2.865,9.345-5.416,12.524-8.991,3.247-3.656,3.9-5.1,3.247-7.149l-.1-.3.791.341a5.659,5.659,0,0,1,.914.464,12.916,12.916,0,0,1-.109,2.347c-.123,1.214-.273,2.947-.355,3.834a8.274,8.274,0,0,1-1.242,4.134,5.317,5.317,0,0,0-.941,3.4,24.22,24.22,0,0,0,1,5.73c.682,2.224,3.861,7.749,5.007,8.7.573.491.778.464.955-.136a50.1,50.1,0,0,0,.355-7.954,99.532,99.532,0,0,0-1.664-15.144c-.409-2.442-.737-4.6-.737-4.816,0-.723.341-.355,1.01,1.064a4.559,4.559,0,0,0,1.978,2.456,12.5,12.5,0,0,0,1.419,1.023c.3,0-.027-.45-1.01-1.392a4.653,4.653,0,0,1-1.364-1.746l-.273-.709.423.3a16,16,0,0,0,4.325,1.051c.164-.164-.177-.327-2.033-.941l-1.733-.573-.368-.669a1.8,1.8,0,0,1-.286-.737,3.725,3.725,0,0,1,1.105.273c1.105.368,1.405.368,3.738-.055,1.5-.273,1.146-.423-.887-.368l-1.9.041-.969-.669-.969-.655.014-1.433c0-1.378.014-1.419.286-1.337a10.166,10.166,0,0,0,1.2.164,2.507,2.507,0,0,0,2.538-1.105,2.5,2.5,0,0,1,.5-.614,3.115,3.115,0,0,0,.5-.437,1.4,1.4,0,0,0-.355-2.169c-.191-.1-.355-.218-.355-.259a8.528,8.528,0,0,1,2.224-.832,6.569,6.569,0,0,1,1.323.546,6.6,6.6,0,0,0,1.3.546c.573,0-.1-.587-1.323-1.16a3.24,3.24,0,0,0-3.015.082l-.982.409-.341-.45a10.478,10.478,0,0,0-1.733-1.746l-.437-.341.4-.955a3.342,3.342,0,0,0,.014-3.111C111.388-414.272,110.965-414.817,110.842-414.517Z" transform="translate(-63.101 -85.773)" fill="#fff"/>
    <path id="Path_15" data-name="Path 15" d="M580.147-378.7a18.622,18.622,0,0,0-2.633.6c-2.606.873-3.9,2.224-4.407,4.584-.286,1.378-.3,18.909,0,20.287.737,3.465,2.974,4.884,8.6,5.43a47.169,47.169,0,0,0,7.708-.15c3.22-.409,5.484-1.6,6.453-3.383.846-1.569.846-1.487.846-11.9,0-10.178-.014-10.355-.709-11.842a5.7,5.7,0,0,0-2.674-2.538c-2.019-.969-4.311-1.31-8.691-1.3C582.821-378.889,580.979-378.807,580.147-378.7Zm8.445,3c2.265.355,3.383,1.023,4,2.347.3.641.3.655.3,10.055,0,10.505.055,9.837-.969,10.983-1.419,1.555-7.176,2.183-11.5,1.242-2.033-.45-2.879-1.051-3.465-2.469l-.3-.75v-8.936c0-8.049.027-9,.232-9.687.587-1.883,2.033-2.647,5.7-3A29.732,29.732,0,0,1,588.592-375.7Z" transform="translate(-494.669 -116.599)" fill="#fff"/>
    <path id="Path_16" data-name="Path 16" d="M1105.622-378.58c-2.947.355-4.489.764-5.675,1.528a5.635,5.635,0,0,0-2.51,3.711c-.232,1.078-.355,25.171-.123,25.458a7.861,7.861,0,0,0,3.52.014,41.925,41.925,0,0,0,.177-5.635l.041-5.444h15.962l.041,5.444a41.925,41.925,0,0,0,.177,5.635,7.861,7.861,0,0,0,3.52-.014c.123-.15.15-3.233.109-12.524-.055-13.807-.027-13.37-1.037-14.939s-2.633-2.456-5.471-2.988a29.785,29.785,0,0,0-4.707-.259C1107.7-378.621,1105.882-378.608,1105.622-378.58Zm6.958,3.07c2.183.286,3.37.955,4.025,2.224l.409.819v10.109l-7.708.041c-4.243.014-7.845,0-8.022-.041l-.314-.082.041-5.007c.041-4.734.055-5.034.327-5.621.737-1.61,2.142-2.278,5.321-2.579A34.383,34.383,0,0,1,1112.58-375.511Z" transform="translate(-947.44 -116.853)" fill="#fff"/>
    <path id="Path_17" data-name="Path 17" d="M1322-378.726c-4.611.437-6.617,1.228-7.927,3.138-.832,1.2-.982,1.883-1.05,4.871-.068,3.138.068,3.929.928,5.239a5.463,5.463,0,0,0,2.306,2.046c1.146.587,1.9.764,7.927,1.733,3.042.491,5.826,1,6.194,1.132a3.766,3.766,0,0,1,2.1,1.91,8.333,8.333,0,0,1,.314,3.916c-.355,2.592-1.051,3.247-4.107,3.9a22.509,22.509,0,0,1-9.386-.368,3.65,3.65,0,0,1-2.074-1.692,8.7,8.7,0,0,1-.546-3.7,4.959,4.959,0,0,0-.136-1.651,18.1,18.1,0,0,0-1.842,0l-1.705.041v2.074a10.792,10.792,0,0,0,.546,4.352,5.966,5.966,0,0,0,2.36,2.688,13.91,13.91,0,0,0,4.052,1.269,62.055,62.055,0,0,0,9.687-.014c4.27-.7,6.344-2.428,6.822-5.716a24.8,24.8,0,0,0-.068-5.73,5.788,5.788,0,0,0-4.243-4.325c-.614-.2-3.465-.737-6.863-1.3-3.192-.532-6.112-1.051-6.467-1.173a2.912,2.912,0,0,1-1.937-2.019,7.3,7.3,0,0,1-.164-2.592,12.265,12.265,0,0,1,.259-2.333,4.039,4.039,0,0,1,2.156-2.087c3.37-1.242,10.355-.928,12.292.559.9.682,1.228,1.473,1.378,3.356a7.842,7.842,0,0,0,.232,1.692,9.321,9.321,0,0,0,1.8.068l1.692-.041.041-1.282a9.584,9.584,0,0,0-.791-4.325c-1.037-2.1-3.425-3.22-7.708-3.588A50.693,50.693,0,0,0,1322-378.726Z" transform="translate(-1133.808 -116.694)" fill="#fff"/>
    <path id="Path_18" data-name="Path 18" d="M790.86-376.912c-.068.1-.1,5.676-.082,12.388.055,13.193.055,13.288.791,14.775a5.916,5.916,0,0,0,2.442,2.469,15.848,15.848,0,0,0,7.231,1.132c3.07-.136,4.843-.791,6.521-2.428l.928-.9.914.914a8.072,8.072,0,0,0,4.052,2.142,14.7,14.7,0,0,0,3.547.232,13.386,13.386,0,0,0,6.03-1.01,5.947,5.947,0,0,0,2.565-2.456c.737-1.46.737-1.5.75-14.844.014-6.767-.027-12.374-.068-12.442a9.794,9.794,0,0,0-3.452.027c-.123.123-.164,2.92-.164,11.774,0,7.326-.055,11.91-.136,12.47-.341,2.06-1.282,2.879-3.888,3.356a12.048,12.048,0,0,1-6.276-.573,3.548,3.548,0,0,1-1.61-1.8l-.3-.764-.041-12.129c-.027-8.513-.082-12.2-.191-12.32a8.213,8.213,0,0,0-3.506,0c-.1.136-.15,3.793-.177,12.388l-.041,12.2-.327.723a3.9,3.9,0,0,1-2.224,1.992,12.928,12.928,0,0,1-4.857.382c-2.019-.2-2.81-.491-3.6-1.269-1.187-1.187-1.119-.409-1.2-14.312l-.068-12.211-1.733-.041C791.406-377.076,790.942-377.035,790.86-376.912Z" transform="translate(-682.83 -118.167)" fill="#fff"/>
    <path id="Path_19" data-name="Path 19" d="M1529.1-376.9c-.055.041-.1,6.917-.1,15.267v15.2l.314.068a12.078,12.078,0,0,0,1.8.041l1.5-.041.041-4.216a26.789,26.789,0,0,1,.177-4.407c.123-.136,1.255-.177,5.771-.177,5.566,0,7.053-.082,8.622-.478a6.782,6.782,0,0,0,5.13-5.184,71.07,71.07,0,0,0-.014-10.505,6.005,6.005,0,0,0-1.774-3.206c-1.405-1.392-2.988-2.033-5.621-2.319C1543.53-377.005,1529.232-377.046,1529.1-376.9Zm15.635,3.1c2.2.423,3.52,1.6,3.9,3.493a26.023,26.023,0,0,1,.245,3.206,19,19,0,0,1-.518,6.139,4.309,4.309,0,0,1-1.883,2.115c-1.31.655-1.8.709-7.667.778a39.427,39.427,0,0,1-5.825-.082l-.3-.164v-7.749c0-4.257.041-7.79.1-7.831s2.524-.1,5.512-.1A46.927,46.927,0,0,1,1544.73-373.8Z" transform="translate(-1320.339 -118.251)" fill="#fff"/>
    <path id="Path_20" data-name="Path 20" d="M1675-185.627c0,.232.082.273.682.273h.682v2.046c0,1.951.014,2.046.273,2.046s.273-.1.273-2.046v-2.046h.764c.641,0,.75-.041.709-.246s-.246-.232-1.719-.273C1675.068-185.9,1675-185.9,1675-185.627Z" transform="translate(-1446.42 -283.284)" fill="#fff"/>
    <path id="Path_21" data-name="Path 21" d="M1704-183.681c0,2.224.014,2.319.273,2.319s.273-.1.286-1.951v-1.937l.655,1.842c.573,1.651.682,1.842.969,1.842s.368-.191.941-1.842l.628-1.842.041,1.937c.027,1.842.055,1.951.3,1.951s.273-.1.273-2.319V-186h-.941l-.587,1.774a12.636,12.636,0,0,1-.655,1.774,12.627,12.627,0,0,1-.655-1.774l-.587-1.774H1704Z" transform="translate(-1471.463 -283.184)" fill="#fff"/>
  </g>
</svg>
